<?xml version="1.0" standalone="no"?>
<!DOCTYPE svg PUBLIC "-//W3C//DTD SVG 1.1//EN" "http://www.w3.org/Graphics/SVG/1.1/DTD/svg11.dtd" >
<svg xmlns="http://www.w3.org/2000/svg">
<metadata>Generated by IcoMoon</metadata>
<defs>
<font id="icomoon" horiz-adv-x="1024">
<font-face units-per-em="1024" ascent="960" descent="-64" />
<missing-glyph horiz-adv-x="1024" />
<glyph unicode="&#x20;" horiz-adv-x="512" d="" />
<glyph unicode="&#xe900;" glyph-name="a" d="M504.852 452.413l-504.852 114.586 30.72 336.466 341.012 52.081zM1024 566.999l-504.852-114.586 133.12 503.132 341.012-52.081zM371.732-68.465l-341.012 52.081-30.72 336.527 504.852 114.586zM993.28-16.384l-341.012-52.081-133.12 503.194 504.852-114.586z" />
<glyph unicode="&#xe901;" glyph-name="aa" d="M511.928 960c-188.908 0-341.996-153.098-341.996-342.016 0-188.969 153.088-342.036 341.996-342.036 188.969 0 342.067 153.068 342.067 342.036 0 188.918-153.098 342.016-342.067 342.016zM528.609 347.095c-101.949 0-191.631 66.959-243.896 168.305h487.782c-52.255-101.335-141.885-168.305-243.886-168.305zM718.336 231.567c-61.501-32.973-131.799-51.794-206.408-51.794-74.547 0-144.814 18.78-206.326 51.794-132.884-34.908-237.046-117.647-284.754-295.567h982.303c-47.729 177.951-151.828 260.7-284.815 295.567z" />
<glyph unicode="&#xe902;" glyph-name="aa1" d="M512 960c-282.429 0-512-229.734-512-512 0-282.46 229.571-512 512-512 282.296 0 512 229.54 512 512 0 282.266-229.704 512-512 512zM64.676 410.184l114.524 39.69-114.473 36.639c7.895 92.488 43.858 177.060 99.43 245.094l92.877-47.903-46.766 96.573c70.646 64.225 161.843 106.158 262.39 114.934l39.342-118.18v-318.269l244.183-269.804-9.339 5.417 54.221-89.784c-70.042-59.095-158.321-97.116-255.078-104.397l-33.987 102.205-34.099-102.185c-102.605 7.762-195.727 50.033-267.612 115.395l46.551 96.532-92.611-47.903c-55.747 68.25-91.771 153.139-99.553 245.944z" />
<glyph unicode="&#xe903;" glyph-name="aa2" d="M671.877 450.161c0-93.665-75.93-169.595-169.595-169.595s-169.595 75.93-169.595 169.595c0 93.665 75.93 169.595 169.595 169.595s169.595-75.93 169.595-169.595zM136.878 376.32h-129.966c20.797-143.36 95.785-256.942 202.783-335.78l64.635 112.179c-69.212 55.153-119.081 121.201-137.452 223.601zM755.825 151.982l64.645-110.694c106.967 78.848 181.985 191.672 202.783 335.032h-129.976c-18.381-102.4-68.26-169.175-137.452-224.338zM264.325 745.513l-65.055 114.084c-107.981-83.886-181.862-217.037-196.188-350.157h129.905c12.872 81.92 61.092 176.138 131.338 236.073zM515.082 66.161c-45.015 0-88.054 8.1-128.236 22.252l-65.208-112.394c59.802-24.238 124.989-37.857 193.454-37.857 68.454 0 133.652 13.619 193.454 37.857l-65.229 112.394c-40.202-14.152-83.241-22.252-128.236-22.252zM309.688 919.316l64.911-111.882c43.602 17.029 90.86 26.706 140.483 26.706 49.582 0 96.881-9.677 140.483-26.706l64.922 111.882c-62.976 27.412-132.383 42.844-205.404 42.844-73.032 0-142.418-15.432-205.394-42.844zM897.178 509.44h129.905c-14.336 133.12-88.197 264.253-196.198 348.15l-65.065-110.049c70.236-59.955 118.477-156.18 131.359-238.1z" />
<glyph unicode="&#xe904;" glyph-name="aa3" d="M1024 448.041l-182.18 136.602 32.184 225.434-225.382-32.215-136.653 182.149-136.602-182.149-225.444 32.184 32.215-225.403-182.139-136.632 182.149-136.612-32.215-225.444 225.444 32.215 136.622-182.18 136.622 182.18 225.444-32.195-32.225 225.423 182.159 136.643zM512 128.010c-176.722 0-320.010 143.258-320.010 320 0 176.753 143.288 320 320.010 320s319.99-143.247 319.99-320c0-176.742-143.268-320-319.99-320zM768 448.010c0-141.385-114.615-256-256-256s-256 114.615-256 256c0 141.385 114.615 256 256 256s256-114.615 256-256z" />
<glyph unicode="&#xe905;" glyph-name="aa4" d="M897.055 295.086c-4.372 3.256-9.81 6.543-14.449 9.861-35.768 25.723-73.646 52.316-73.646 110.899v61.501c0 101.335-51.2 196.26-133.12 250.44v72.468c0 87.163-71.557 158.075-158.72 158.075s-158.72-70.912-158.72-158.075v-72.264c-92.16-54.118-143.36-149.115-143.36-250.634v-61.501c0-58.573-37.161-85.135-72.899-110.858-4.854-3.471-9.677-6.881-14.203-10.281-7.885-5.059-15.165-10.752-21.627-17.705l-31.508-33.812h9.677c-5.335-20.48-2.56-28.17-2.56-42.619v-122.89c0-27.822 17.050-49.531 44.872-49.531h259.133c15.176-61.44 65.106-92.918 122.511-92.918 57.375 0 107.264 31.478 122.44 92.918h264.663c27.812 0 56.781 21.709 56.781 49.531v124.324c0 37.99-23.122 72.714-55.265 93.071zM508.426 5.376c-18.391 0-35.092 2.304-45.629 22.784h91.208c-10.527-20.48-27.228-22.784-45.578-22.784zM821.35 223.078l1.126-0.799c3.942-2.836 7.813-5.612 11.397-8.294l8.305-4.055c3.297-2.048 7.741-5.356 7.741-8.663v-70.707h-665.6v70.021c0 1.004-3.543 4.045-0.563 7.383 0.696 0.778-0.307 1.434 0.461 1.925l4.618 3.789c3.553 2.703 6.82 5.356 10.598 8.079l2.56 1.311c40.090 28.826 115.446 82.483 115.446 192.778v61.501c0 107.837 86.723 195.574 194.56 195.574s194.56-87.726 194.56-195.574v-61.501c0-110.305 74.711-163.953 114.79-192.768zM517.12 857.446c31.529 0 56.32-25.651 56.32-57.19v-32.154c-20.48 3.799-37.356 5.714-56.474 5.714-18.964 0-35.686-1.905-56.166-5.673v32.113c0 31.529 24.781 57.19 56.32 57.19zM567.839 657.49c-3.451 1.096-7.035 1.649-10.619 1.649-15.35 0-28.774-9.841-33.434-24.535-5.775-18.432 4.485-38.164 22.917-43.971 36.966-11.663 65.997-40.704 77.65-77.64 4.618-14.684 18.063-24.535 33.464-24.535 3.748 0 7.404 0.584 10.537 1.638 18.432 5.806 28.713 25.539 22.907 43.981-18.565 58.778-64.707 104.919-123.423 123.412z" />
<glyph unicode="&#xe906;" glyph-name="aa5" d="M890.921 154.204h98.97c18.78 0 34.12 15.36 34.12 34.12v7.567c0 18.76-15.34 34.12-34.12 34.12h-3.789v540.232c0 36.577-28.037 66.345-62.536 66.345h-500.439c-34.509 0-62.546-29.757-62.546-66.345v-104.264h-137.452c-28.426 0-33.167-15.36-33.167-15.36s-169.656-233.923-180.081-242.811c-16.671-14.397-7.199-42.854-7.199-42.854s36.966-176.282 40.95-191.242c4.168-14.797 20.838-19.538 20.838-19.538h61.235c3.594 20.48 11.551 39.455 23.122 55.921 23.685 45.476 68.987 81.5 124.15 81.5 75.274 0 139.315-63.304 144.056-137.421h190.136c4.925 74.117 66.734 137.421 141.978 137.421 75.244 0.010 137.032-63.283 141.773-137.39zM218.388 590.162h66.345v-189.553h-189.553l123.208 189.553zM189.962 144.712c0-47.186 38.103-85.299 85.299-85.299s85.299 38.113 85.299 85.299c0 47.196-38.103 85.299-85.299 85.299s-85.299-38.103-85.299-85.299zM663.849 144.712c0-47.186 38.093-85.299 85.299-85.299 47.186 0 85.299 38.113 85.299 85.299 0 47.196-38.113 85.299-85.299 85.299-47.206 0-85.299-38.103-85.299-85.299z" />
<glyph unicode="&#xe907;" glyph-name="b" d="M521.964 957.112l144.404-357.048 367.596-34.058-278.282-254.781 82.688-378.102-316.406 199.608-316.416-199.608 82.729 378.102-278.323 254.781 367.596 34.058z" />
<glyph unicode="&#xe908;" glyph-name="ba" d="M784.323 905.82v25.201h-147.261l-14.418-20.859h-347.781c-80.486 0-145.992-65.505-145.992-145.992v-653.23c0-80.476 65.495-145.961 145.992-145.961h474.245c80.517 0 146.022 65.485 146.022 145.961v653.23c-0.010 68.372-47.247 125.86-110.807 141.65zM858.624 110.94c0-60.344-49.060-109.517-109.517-109.517h-474.245c-60.385 0-109.517 49.183-109.517 109.517v653.23c0 60.334 49.132 109.507 109.517 109.507h362.199v-226.222l73.636 61.737 73.605-61.737v220.375c43.213-14.725 74.312-55.603 74.312-103.649v-653.24h0.010zM749.097-64h-474.235c-96.492 0-174.971 78.479-174.971 174.94v653.23c0 96.481 78.479 174.971 174.971 174.971h332.575l14.428 20.859h191.457v-33.065c66.243-26.010 110.776-90.010 110.776-162.765v-653.23c0-96.461-78.479-174.94-175.002-174.94zM274.862 844.708c-44.421 0-80.538-36.116-80.538-80.527v-653.23c0-44.411 36.116-80.527 80.538-80.527h474.245c44.421 0 80.538 36.116 80.538 80.527v653.22c0 17.961-5.96 34.888-16.333 48.548v-227.379l-102.615 86.047-102.636-86.047v259.369h-333.199zM710.697 747.028l44.636-37.448v192.451h-89.313v-192.451l44.677 37.448zM775.025 495.626h-535.644c-16.036 0-29.020-13.005-29.020-29.041 0-16.046 12.984-29.020 29.020-29.020h535.644c16.005 0 28.959 12.984 28.959 29.020s-12.943 29.041-28.959 29.041zM775.025 398.090h-535.644c-16.036 0-29.020-13.025-29.020-29.010 0-16.015 12.984-29 29.020-29h535.644c16.005 0 28.959 12.984 28.959 29 0 15.985-12.943 29.010-28.959 29.010zM775.025 309.617h-535.644c-16.036 0-29.020-12.984-29.020-29.020s12.984-29.041 29.020-29.041h535.644c16.005 0 28.959 13.005 28.959 29.041 0 16.067-12.943 29.020-28.959 29.020z" />
<glyph unicode="&#xe909;" glyph-name="ba1" d="M1022.618 482.017c-16.66 255.621-220.979 460.052-476.621 477.030v0.952h-67.973v-0.952c-255.724-16.978-460.052-221.409-477.030-477.030h-0.983v-67.973h0.983c16.978-255.693 221.307-460.042 477.030-476.692v-1.352h67.973v1.362c255.642 16.65 459.96 221 476.621 476.682h1.362v67.994h-1.362v-0.020zM320.655 848.353c-33.044-43.674-60.682-98.673-80.394-161.3h-102.287c44.349 69.274 107.684 125.604 182.682 161.3v0zM102.328 618.742h119.982c-9.308-43.069-15.002-89.037-16.988-136.724h-135.68c3.666 48.353 15.002 94.003 32.686 136.724v0zM69.642 414.044h135.67c1.987-47.657 7.68-93.696 16.988-136.704h-119.972c-17.684 42.639-29.020 88.289-32.686 136.704v0zM137.974 209.009h101.98c20.019-62.628 47.391-117.688 80.701-161.372-74.998 35.768-138.332 92.047-182.682 161.372v0zM478.024 8.663c-70.39 18.668-130.703 94.044-167.332 200.346h167.332v-200.346zM478.024 277.34h-186.716c-9.656 42.639-15.647 88.289-17.654 136.704h204.37v-136.704zM478.024 482.017h-204.37c1.997 48.353 7.987 94.003 17.654 136.724h186.716v-136.724zM478.024 687.053h-167.332c36.628 106.322 96.942 181.678 167.332 200.294v-200.294zM885.975 687.053h-102.001c-20.019 62.628-47.299 117.627-80.66 161.3 74.988-35.697 138.383-92.027 182.661-161.3v0zM545.997 887.337c70.318-18.606 130.621-93.972 167.301-200.294h-167.301v200.294zM545.997 618.742h186.624c9.677-42.721 15.38-88.371 17.664-136.724h-204.288v136.724zM545.997 414.044h204.288c-1.966-48.415-7.967-94.065-17.664-136.704h-186.624v136.704zM545.997 8.663v200.346h167.301c-36.68-106.312-96.973-181.678-167.301-200.346v0zM703.324 47.636c33.034 44.032 60.641 98.744 80.66 161.372h102.001c-44.288-69.325-107.684-125.604-182.661-161.372v0zM921.661 277.34h-120.023c9.38 42.988 15.002 89.037 17.019 136.704h135.619c-3.635-48.415-14.94-94.065-32.614-136.704v0zM818.657 482.017c-2.017 47.677-7.639 93.655-17.019 136.724h120.023c17.684-42.721 28.979-88.371 32.625-136.724h-135.629z" />
<glyph unicode="&#xe90a;" glyph-name="ba2" d="M906.373 867.84h-787.651c-65.167 0-118.723-61.747-118.723-126.915v-467.63c0-65.137 53.555-112.015 118.723-112.015h311.736c6.717-10.24 9.81-11.5 9.81-14.244 0-2.765-2.959-8.54-9.472-12.503-176.497-8.458-176.486-34.714-176.486-49.971 0-12.657 0-51.569 260.352-51.569s260.352 38.318 260.352 50.985c0 15.063 0 40.090-170.947 48.855-8.407 4.321-12.278 12.411-12.278 15.585 0 2.437 2.406 2.621 7.7 12.861h306.893c65.147 0 117.617 46.879 117.617 112.015v467.63c0 65.167-52.47 126.915-117.627 126.915zM931.84 765.44v-471.040h-829.44v471.040h829.44z" />
<glyph unicode="&#xe90b;" glyph-name="ba3" d="M1008.077 480.164c-30.884 75.295-89.487 113.541-173.998 113.541h-101.53c17.213 38.605 36.27 94.843 36.27 162.447 0 18.668-1.495 37.734-4.905 57.508-13.322 78.49-66.949 120.371-143.329 112.046-30.218-3.471-40.54-32.236-65.679-101.786-20.797-57.743-49.326-136.673-90.552-200.141-30.454-46.612-84.531-83.507-129.792-106.281v5.837h-334.561v-496.753h334.541v27.238c52.531 2.54 82.575 1.106 89.692-1.096l59.628-34.724 44.841-27.945c43.356-23.347 233.462-25.723 315.023-13.722 104.94 15.452 130.243 101.263 131.277 104.919 8.223 28.57 80.323 284.129 33.075 398.909v0zM911.729 99.297c-0.42-1.741-15.872-48.916-77.445-57.743-87.757-13.076-250.44-5.161-274.422 6.441 0-0.215-39.731 24.893-39.731 24.893l-75.325 42.271c-17.357 5.796-56.863 6.482-110.254 4.096v327.26c53.842 21.873 137.329 68.639 184.955 141.384 45.476 70.001 75.5 152.965 97.423 213.719 0 0 19.077 48.077 23.818 59.228 33.29-0.184 51.722-18.483 58.563-58.184 2.816-15.616 3.881-31.099 3.881-45.865 0-98.468-50.637-176.814-51.476-177.9l-33.28-50.883h215.685c57.498 0 92.416-22.508 113.285-72.96 32.563-79.196-14.828-283.679-35.676-355.758v0z" />
<glyph unicode="&#xe90c;" glyph-name="ba4" d="M133.571 870.922c-72.786 0-133.571-60.785-133.571-133.56v-623.258c0-72.796 60.785-133.56 133.571-133.56h623.268c72.776 0 133.54 60.774 133.54 133.56v328.325l-133.54-178.115v-56.719c0-50.995-42.516-93.522-93.522-93.522h-436.244c-50.985 0-93.501 42.506-93.501 93.522v436.255c0 50.985 42.516 93.512 93.501 93.512h368.599l99.953 133.56h-562.053zM978.985 894.29c-49.193 35.41-118.641 25.375-155.156-22.262l-287.805-376.392-137.134 131.543c-34.294 32.922-96.594 24.494-139.325-18.944-42.527-43.172-49.418-104.837-15.145-137.779 0 0 219.044-209.459 239.084-223.928 49.203-35.41 118.63-25.375 155.136 22.262l363.51 475.013c36.516 47.636 26.276 115.098-23.163 150.487z" />
<glyph unicode="&#xe90d;" glyph-name="ba5" d="M821.576 321.495c34.181 0 61.901 29.46 61.901 65.843 0 36.424-27.72 65.905-61.901 65.925-34.181-0.031-61.778-29.512-61.839-65.925 0.061-36.403 27.74-65.843 61.839-65.843zM821.576 410.317c11.878-0.061 21.524-10.363 21.555-22.989-0.051-12.616-9.636-22.876-21.555-22.917-11.837 0.041-21.514 10.271-21.514 22.917 0.020 12.667 9.677 22.927 21.514 22.989zM679.25 524.36v289.946l-65.475 69.704h-466.412v-359.649h-116.070v-426.322h116.070v-86.047h729.211v86.047h116.142v426.322h-313.467zM187.72 841.103h409.324l41.861-44.616v-272.118h-451.185v316.733zM836.301 54.948h-648.581v104.448h648.581v-104.448zM952.371 141.015h-75.786v61.276h-729.221v-61.276h-75.725v340.367h880.732v-340.367z" />
<glyph unicode="&#xe90e;" glyph-name="ba6" d="M612.997 960c-221.911 0-401.828-179.958-401.828-401.92 0-90.030 29.655-173.179 79.647-240.23l-259.226-253.665c-29.594-28.826-30.106-76.186-1.178-105.667 14.653-14.961 34.038-22.518 53.422-22.518 18.913 0 37.796 7.096 52.347 21.361l264.919 259.236c61.563-38.257 134.083-60.375 211.896-60.375 221.972 0 401.94 179.855 401.94 401.859 0 221.962-179.968 401.92-401.94 401.92zM612.997 227.236c-182.671 0-330.834 148.101-330.834 330.834 0 182.774 148.163 330.854 330.834 330.854 182.804 0 330.916-148.081 330.916-330.854 0.010-182.733-148.111-330.834-330.916-330.834zM612.997 838.482c-154.798 0-280.34-125.604-280.34-280.412 0-154.839 125.553-280.371 280.34-280.371 154.911 0 280.453 125.542 280.453 280.371 0 154.819-125.542 280.412-280.453 280.412zM801.423 528.22c-0.645 0-1.331-0.031-1.925-0.031-19.804 0-36.25 15.565-37.325 35.441-4.198 81.398-83.579 143.718-176.978 138.926-20.675-1.044-38.205 14.776-39.281 35.41-1.055 20.562 14.797 38.185 35.379 39.158 64.481 3.359 126.423-16.097 174.377-54.723 49.265-39.68 78.060-94.679 81.142-154.9 1.055-20.634-14.776-38.236-35.389-39.281z" />
<glyph unicode="&#xe90f;" d="M806.236 908.8h-458.148l-307.128-288.379v-458.138c0-96.707 90.757-175.084 187.474-175.084h577.823c96.707 0 156.303 78.377 156.303 175.104v577.802c0 96.717-59.597 168.694-156.324 168.694z" />
<glyph unicode="&#xe910;" d="M806.236-64h-577.802c-121.303 0-228.434 103.619-228.434 226.304v477.594l328.991 320.102h477.245c121.508 0 207.524-94.525 207.524-219.894v-577.823c0-126.884-88.023-226.284-207.524-226.284zM92.16 600.965v-438.682c0-72.192 65.434-134.124 136.274-134.124h577.823c67.287 0 115.343 59.443 115.343 134.144v577.802c0 73.472-45.824 127.734-115.364 127.734h-439.050l-275.026-266.875z" />
<glyph unicode="&#xe911;" d="M50.432 601.6h119.675c96.696 0 167.813 97.229 167.813 193.925v119.675l-287.488-313.6z" />
<glyph unicode="&#xe912;" d="M850.852 765.153c-40.929 40.919-101.171 41.943-137.687 5.427l-407.849-407.859c36.516 36.536 96.737 35.502 137.677-5.417 40.94-40.94 41.964-101.161 5.437-137.697l407.839 407.859c36.536 36.516 35.523 96.758-5.417 137.687z" />
<glyph unicode="&#xe913;" d="M455.014 213.012l-13.158 13.169c33.382 33.403 30.986 88.105-5.437 124.529-18.76 18.76-42.557 29.092-67.011 29.092-21.842 0-42.25-8.397-57.508-23.665l-13.158 13.158c0.020 0.041 0.051 0.061 0.092 0.102l407.747 407.767c18.78 18.77 43.878 29.102 70.676 29.102 29.42 0 57.897-12.268 80.179-34.54 43.817-43.817 46.213-110.080 5.417-150.856l-407.839-407.859zM369.398 398.418c29.43 0 57.897-12.268 80.169-34.54 27.392-27.402 38.595-63.57 33.178-96.799l366.93 366.95c33.413 33.403 31.017 88.105-5.407 124.539-18.749 18.749-42.547 29.071-67.031 29.071-21.821 0-42.26-8.397-57.498-23.654l-366.92-366.909c5.427 0.881 10.957 1.341 16.579 1.341z" />
<glyph unicode="&#xe914;" d="M245.76 202.24h542.72v-71.68h-542.72v71.68z" />
<glyph unicode="&#xe915;" d="M305.306 362.721l-97.495-229.745 240.62 86.6c0 0 54.917 106.803-23.163 152.218-78.111 45.445-119.962-9.073-119.962-9.073z" />
<glyph unicode="&#xe916;" d="M190.925 117.002l107.008 251.402c0.963 1.26 24.136 30.802 67.973 30.802 20.439 0 41.994-6.502 64.051-19.343 67.799-39.465 47.145-124.877 26.757-164.516l-1.679-3.246-264.11-95.099zM313.354 357.837l-88.648-208.896 217.006 78.121c8.192 17.623 42.056 99.942-21.125 136.704-19.18 11.162-37.581 16.835-54.692 16.835-31.089-0.020-48.998-18.657-52.541-22.764z" />
<glyph unicode="&#xe917;" d="M511.549 641.475c-106.793-0.184-193.29-86.999-193.106-193.864 0.215-106.803 87.050-193.28 193.874-193.055 106.824 0.195 193.331 86.958 193.075 193.812-0.133 106.854-86.938 193.321-193.843 193.106z" />
<glyph unicode="&#xe918;" d="M511.877 230.185c-119.859 0-217.569 97.516-217.815 217.385-0.205 120.146 97.352 218.071 217.446 218.266 120.412 0 218.112-97.536 218.245-217.436 0.143-58.163-22.405-112.896-63.498-154.143-41.083-41.216-95.744-63.969-153.897-64.082h-0.481zM511.969 617.093c-93.604-0.164-169.318-76.165-169.165-169.441 0.195-93.020 76.032-168.704 169.073-168.714v-24.381l0.379 24.381c45.169 0.082 87.593 17.736 119.48 49.736 31.877 32 49.377 74.476 49.275 119.624-0.113 93.092-75.95 168.796-169.042 168.796z" />
<glyph unicode="&#xe919;" d="M999.342 476.488l-115.476-0.195c-13.865 183.88-161.106 330.557-345.047 343.757l-0.215 115.507-55.183-0.102 0.215-115.548c-183.808-13.896-330.527-161.147-343.685-345.047l-115.538-0.225 0.092-55.091 115.476 0.215c13.957-183.839 161.208-330.506 345.139-343.695l0.164-115.62 55.132 0.082-0.225 115.64c183.89 13.875 330.547 161.137 343.798 345.057l115.548 0.205-0.195 55.060zM512.492 129.812c-175.473-0.328-318.454 142.131-318.74 317.573-0.379 175.493 142.070 318.546 317.553 318.915 175.493 0.317 318.587-142.172 318.874-317.686 0.379-175.462-142.193-318.474-317.686-318.802z" />
<glyph unicode="&#xe91a;" d="M460.943-63.99l-0.174 118.006c-176.876 23.020-318.945 164.516-342.733 341.299l-117.873-0.205-0.164 103.844 117.893 0.246c23.009 176.886 164.506 318.935 341.32 342.661l-0.225 117.944 103.905 0.184 0.225-117.893c176.906-23.050 318.966-164.577 342.671-341.391l117.821 0.205 0.389-103.854-117.996-0.205c-23.081-176.896-164.598-318.956-341.402-342.671l0.246-118.026-103.905-0.143zM162.58 444.17l1.72-22.569c12.964-170.885 151.634-308.972 322.56-321.229l22.61-1.608 0.154-113.9h6.38l-0.246 113.879 22.589 1.72c170.875 12.902 309.012 151.562 321.331 322.519l1.597 22.579 113.797 0.205-0.020 6.318-113.797-0.195-1.72 22.579c-12.882 170.885-151.521 309.012-322.499 321.27l-22.569 1.628-0.215 113.777-6.41-0.010 0.205-113.818-22.579-1.71c-170.885-12.923-308.982-151.552-321.219-322.478l-1.608-22.579-113.807-0.246 0.010-6.328 113.736 0.195zM512.543 105.441c-189.225 0-342.845 153.385-343.173 341.914-0.205 91.372 35.287 177.449 99.932 242.371s150.569 100.772 241.961 100.946h0.645c188.631 0 342.354-153.426 342.661-342.016 0.215-91.351-35.318-177.418-100.014-242.319-64.676-64.901-150.61-100.741-242.012-100.895zM511.898 766.3l-0.553-24.381c-78.356-0.164-152.044-30.925-207.493-86.6-55.46-55.685-85.903-129.505-85.729-207.872 0.266-161.71 132.035-293.263 293.724-293.263 78.971 0.143 152.699 30.894 208.179 86.559 55.501 55.665 85.965 129.485 85.78 207.811-0.276 161.772-132.116 293.366-293.908 293.366v24.381z" />
<glyph unicode="&#xe91b;" glyph-name="bc" d="M480.082 350.556h63.857c37.059 0 67.215 30.157 67.215 67.226l0.020 0.891 40.305 373.903c-0.215 36.895-30.3 66.796-67.205 66.796h-144.517c-36.936 0-66.99-29.911-67.236-66.796l40.325-374.794c-0.010-37.059 30.147-67.226 67.236-67.226zM992.809 243.743l-79.606 108.892c-13.937 18.401-32.471 40.786-59.617 40.786h-189.409l-0.195-2.939c-0.205-49.889-70.134-97.505-120.064-97.505h-63.857c-49.94 0-129.649 47.616-129.823 97.505l-0.195 2.939h-179.61c-27.156 0-45.681-22.395-59.597-40.786l-79.616-108.892c-14.397-19.374-31.222-37.745-31.222-63.611v-103.066c0-44.575 36.116-40.335 80.66-40.335h862.679c44.564 0 80.66-4.219 80.66 40.335v103.066c0 25.866-16.804 44.237-31.191 63.611zM803.482 210.657c-63.98 0-115.845 11.756-115.845 26.245 0 14.52 51.855 26.255 115.845 26.255 64 0 115.845-11.735 115.845-26.255-0.010-14.459-51.845-26.245-115.845-26.245z" />
<glyph unicode="&#xe91c;" glyph-name="bc1" d="M665.6 899.041h-31.703v-1.71c0-26.081-20.941-47.043-46.797-47.043h-150.2c-25.846 0-46.797 20.961-46.797 47.043v1.71h-31.703c-103.629 0-220.754-84.111-220.754-187.74v-80.445h-40.131v70.482c0 14.868-14.131 27.054-31.683 27.054h-34.14c-17.541-0.010-31.693-12.186-31.693-27.054v-92.17c0-14.868 14.152-27.054 31.693-27.054h105.964v-31.713c0-14.131 1.7-28.027 4.608-41.452h2.058c-52.644 0-95.56-42.906-95.56-95.57v-198.943c0-45.322 31.468-83.415 73.851-93.143-0.461-2.918-0.707-6.113-0.707-9.257v-59.494c0-30.74 24.863-55.603 55.583-55.603h59.494c30.74 0 55.613 24.863 55.613 55.603v59.494c0 2.437 0 4.639-0.481 6.82h439.808c-0.481-2.181-0.481-4.383-0.481-6.82v-59.494c0-30.74 24.883-55.603 55.583-55.603h59.505c30.74 0 55.603 24.863 55.603 55.603v59.494c0 3.164-0.225 6.339-0.737 9.257 42.435 9.728 73.892 47.821 73.892 93.143v198.943c0 52.664-42.916 95.57-95.56 95.57h2.048c2.918 13.425 4.618 27.32 4.618 41.452v31.713h105.974c17.541 0 31.683 12.175 31.683 27.054v92.17c0 14.868-14.141 27.054-31.683 27.054h-34.212c-17.541 0-31.683-12.175-31.683-27.054v-70.482h-40.12v80.445c0.010 103.629-117.115 187.74-220.754 187.74zM365.711 289.536h292.588v-48.794h-292.588v48.794zM365.711 362.68h292.588v-48.763h-292.588v48.763zM725.32 312.443c0 40.243 38.779 80.701 79.258 80.701s79.237-38.758 79.237-79.206c0-40.479-38.758-79.237-79.237-79.237s-79.258 37.284-79.258 77.742zM140.186 315.382c0 40.458 38.758 77.763 79.227 77.763 40.479 0 79.258-38.758 79.258-79.206 0-40.479-38.779-79.237-79.258-79.237-40.458-0.020-79.227 40.438-79.227 80.681zM396.186 801.536h233.114c75.561 0 159.539-41.943 159.539-117.279v-175.299h-553.677v172.134c0 75.581 85.688 120.443 161.024 120.443z" />
<glyph unicode="&#xe91d;" glyph-name="bc2" d="M890.941 154.204h98.949c18.749 0 34.109 15.36 34.109 34.099v7.598c0 18.739-15.36 34.12-34.109 34.12h-3.799v540.221c0 36.577-28.047 66.345-62.546 66.345h-500.429c-34.488 0-62.546-29.757-62.546-66.345v-104.264h-137.441c-28.426 0-33.167-15.36-33.167-15.36s-169.656-233.902-180.081-242.801c-16.671-14.397-7.199-42.844-7.199-42.844s36.966-176.292 40.95-191.273c4.157-14.766 20.838-19.507 20.838-19.507h61.235c3.594 20.46 11.551 39.424 23.122 55.921 23.685 45.466 68.987 81.5 124.15 81.5 75.254 0 139.336-63.314 144.077-137.421h190.116c4.905 74.107 66.734 137.421 141.978 137.421 75.244 0.010 137.052-63.293 141.793-137.411zM218.388 590.162h66.345v-189.542h-189.553l123.208 189.542zM189.962 144.722c0-47.196 38.103-85.299 85.299-85.299s85.299 38.103 85.299 85.299-38.103 85.299-85.299 85.299c-47.196 0-85.299-38.103-85.299-85.299zM663.849 144.722c0-47.196 38.093-85.299 85.299-85.299 47.186 0 85.299 38.103 85.299 85.299s-38.113 85.299-85.299 85.299c-47.206 0-85.299-38.103-85.299-85.299z" />
<glyph unicode="&#xe91e;" glyph-name="bc3" d="M898.161-64h-772.321c-69.386 0-125.839 56.463-125.839 125.839v772.321c0 69.386 56.453 125.839 125.839 125.839h772.321c69.376 0 125.839-56.453 125.839-125.839v-772.321c0-69.376-56.463-125.839-125.839-125.839zM931.84 835.092c0 18.084-14.664 32.748-32.748 32.748h-774.185c-18.084 0-32.748-14.664-32.748-32.748v-774.185c0-18.084 14.664-32.748 32.748-32.748h774.185c18.084 0 32.748 14.664 32.748 32.737v774.195zM434.637 375.040c0-28.367-22.996-51.364-51.364-51.364s-51.364 22.996-51.364 51.364c0 28.367 22.996 51.364 51.364 51.364s51.364-22.996 51.364-51.364zM740.168 375.040c0-28.367-22.996-51.364-51.364-51.364s-51.364 22.996-51.364 51.364c0 28.367 22.996 51.364 51.364 51.364s51.364-22.996 51.364-51.364zM860.396 550.4h-118.948l-27.556 96.082c0 11.54-9.329 16.558-20.91 16.558h-372.49c-11.54 0-20.931-5.007-20.931-16.558l-22.692-96.082h-102.871c-11.561 0-20.398-3.144-20.398-12.687v-145.367c0-9.564 8.837-26.266 20.398-26.266h128.543c0 51.2 36.137 80.701 80.722 80.701 44.575 0 80.691-29.501 80.691-80.701h144.128c0 51.2 36.127 80.701 80.722 80.701 44.585 0 80.701-29.501 80.701-80.701h90.9c11.551 0 9.994 16.701 9.994 26.255v145.377c0 9.544 1.556 12.687-10.004 12.687zM184.32 263.68h675.84v-20.48h-675.84v20.48zM184.32 202.24h266.24v-10.24h-266.24v10.24zM634.88 202.24h225.28v-10.24h-225.28v10.24zM184.32 130.56h675.84v-20.48h-675.84v20.48z" />
<glyph unicode="&#xe91f;" glyph-name="bc4" d="M512-64c-282.317 0-512 229.683-512 512s229.683 512 512 512c282.317 0 512-229.683 512-512s-229.683-512-512-512zM512 866.908c-230.994 0-418.908-187.924-418.908-418.908s187.924-418.908 418.908-418.908c230.984 0 418.908 187.935 418.908 418.908 0 230.984-187.904 418.908-418.908 418.908zM424.96 328.448c0-28.249-22.9-51.149-51.149-51.149s-51.149 22.9-51.149 51.149c0 28.249 22.9 51.149 51.149 51.149s51.149-22.9 51.149-51.149zM729.221 328.448c0-28.249-22.9-51.149-51.149-51.149s-51.149 22.9-51.149 51.149c0 28.249 22.9 51.149 51.149 51.149s51.149-22.9 51.149-51.149zM848.957 509.44h-118.446l-27.453 95.918c0 11.489-9.308 16.722-20.818 16.722h-370.964c-11.5 0-20.838-5.233-20.838-16.722l-22.6-95.918h-102.441c-11.52 0-11.796-9.472-11.796-18.985v-144.753c0-9.544 0.276-20.582 11.796-20.582h128.010c0 61.44 36.004 80.384 80.404 80.384 44.38 0 80.353-18.944 80.353-80.384h143.544c0 61.44 35.973 80.384 80.374 80.384s80.353-18.944 80.353-80.384h90.522c11.52 0 21.443 11.039 21.443 20.582v144.753c0 9.513-9.923 18.985-21.443 18.985zM237.035 102.66l-66.293 65.334 616.209 625.252 66.293-65.334-616.209-625.252z" />
<glyph unicode="&#xe920;" glyph-name="bc5" d="M512-64c-282.317 0-512 229.683-512 512s229.683 512 512 512c282.317 0 512-229.683 512-512s-229.683-512-512-512zM512 866.908c-230.994 0-418.908-187.924-418.908-418.908s187.924-418.908 418.908-418.908c230.984 0 418.908 187.935 418.908 418.908 0 230.984-187.904 418.908-418.908 418.908zM429.783 343.429c0-28.249-22.9-51.149-51.149-51.149s-51.149 22.9-51.149 51.149c0 28.249 22.9 51.149 51.149 51.149s51.149-22.9 51.149-51.149zM734.034 343.429c0-28.249-22.9-51.149-51.149-51.149s-51.149 22.9-51.149 51.149c0 28.249 22.9 51.149 51.149 51.149s51.149-22.9 51.149-51.149zM853.78 519.68h-118.436l-27.464 95.918c0 11.489-9.298 16.722-20.818 16.722h-370.964c-11.5 0-20.838-5.233-20.838-16.722l-22.6-95.918h-102.441c-11.52 0-16.62-4.741-16.62-14.244v-144.753c0-9.544 5.1-25.324 16.62-25.324h128.010c0 61.44 36.004 80.384 80.404 80.384 44.37 0 80.353-18.944 80.353-80.384h143.534c0 61.44 35.983 80.384 80.384 80.384s80.353-18.944 80.353-80.384h90.522c11.52 0 16.62 15.78 16.62 25.324v144.753c0 9.503-5.1 14.244-16.62 14.244zM95.837 206.581l-66.309 65.341 616.224 625.354 66.309-65.341-616.224-625.354zM845.402 141.653l-625.347 616.217 32.674 33.158 625.347-616.217-32.674-33.158z" />
<glyph unicode="&#xe921;" glyph-name="bc6" d="M133.571 826.409c-72.776 0-133.571-60.785-133.571-133.56v-623.299c0-72.765 60.795-133.56 133.571-133.56h623.288c72.776 0 133.56 60.795 133.56 133.56v265.779l-133.56-133.56v-38.717c0-50.985-42.516-93.501-93.501-93.501h-436.296c-50.975 0-93.491 42.506-93.491 93.501v436.296c0 50.985 42.516 93.501 93.491 93.501h37.396l133.56 133.56h-264.448zM289.393 600.248v-303.411c0-48.978 26.255-71.465 75.448-71.465h300.083l231.055 230.4c-2.212 46.295-8.684 102.175-44.524 164.741l-228.157-229.53v-143.34h-154.481l-157.164 158.484v154.511h143.35l226.611 225.475c-61.42 37.407-109.507 47.872-152.504 53.217l-239.718-239.084zM587.244 425.718l238.858 236.401c-14.479 21.156-27.177 31.611-48.333 52.306-20.48 20.040-33.393 33.393-53.873 47.626l-234.168-238.828v-97.505h97.516zM940.943 500.746c0 0 79.043 71.229 82.821 153.805 2.683 58.132-16.026 111.544-95.734 194.775-81.91 85.494-165.386 109.302-212.347 110.653-71.219 1.782-141.578-75.704-141.578-75.704 62.996-7.782 157.164-35.615 248.658-124.856 92.14-89.723 115.067-190.577 118.18-258.673z" />
<glyph unicode="&#xe922;" glyph-name="bd" d="M512 227.42c-119.951 0-221.594 46.070-256.748 109.742-8.52-15.493-13.21-31.98-13.21-49.111 0-87.675 120.852-158.72 269.957-158.72 149.125 0 269.957 71.045 269.957 158.72 0 17.132-4.649 33.618-13.21 49.111-35.144-63.672-136.776-109.742-256.748-109.742zM744.561 466.76c-19.476-19.384-45.773-36.137-76.913-49.050-44.012-18.309-97.659-29.071-155.648-29.071-57.969 0-111.626 10.762-155.617 29.071-31.191 12.913-57.436 29.665-76.933 49.050-9.902 9.892-18.094 20.46-24.197 31.508-8.52-15.452-13.21-31.887-13.21-49.029 0-10.824 1.843-21.309 5.335-31.529 6.042-17.603 17.039-34.13 32.072-49.039 46.981-46.787 133.54-78.162 232.55-78.162 99.052 0 185.6 31.365 232.561 78.162 15.022 14.909 26.020 31.437 32.082 49.039 3.482 10.22 5.325 20.705 5.325 31.529 0 17.142-4.639 33.577-13.199 49.029-6.124-11.049-14.285-21.617-24.207-31.508zM512 766.648c-149.115 0-269.957-71.045-269.957-158.689 0-10.383 1.751-20.49 4.966-30.269 5.765-17.582 16.486-34.13 31.242-49.111 11.305-11.448 24.996-22.067 40.653-31.488 49.070-29.512 117.422-47.852 193.096-47.852 75.704 0 144.036 18.34 193.096 47.852 15.677 9.421 29.338 20.040 40.663 31.488 14.735 14.981 25.457 31.529 31.222 49.111 3.215 9.779 4.977 19.886 4.977 30.269 0 87.644-120.832 158.689-269.957 158.689zM702.198 590.418c-4.137-12.616-11.827-24.494-22.405-35.246-8.131-8.223-17.94-15.841-29.194-22.61-35.205-21.176-84.275-34.345-138.609-34.345-54.323 0-103.373 13.158-138.609 34.345-11.223 6.769-21.064 14.387-29.174 22.61-10.588 10.762-18.278 22.63-22.426 35.246-2.314 7.035-3.564 14.275-3.564 21.729 0 62.904 86.743 113.9 193.772 113.9 107.039 0 193.772-50.995 193.772-113.9 0.010-7.455-1.239-14.694-3.564-21.729zM512-64c-282.317 0-512 229.683-512 512s229.683 512 512 512c282.317 0 512-229.683 512-512s-229.683-512-512-512zM512 866.908c-230.994 0-418.908-187.914-418.908-418.908 0-231.004 187.914-418.908 418.908-418.908 231.004 0 418.908 187.914 418.908 418.908s-187.904 418.908-418.908 418.908z" />
<glyph unicode="&#xe923;" glyph-name="bd1" d="M511.969 960c-282.296 0-511.969-229.683-511.969-512.010 0-282.307 229.673-511.99 511.969-511.99 282.327 0 512.031 229.683 512.031 511.99 0 282.327-229.704 512.010-512.031 512.010zM776.55 609.905c-24.064 39.219-56.515 72.591-95.078 97.792-3.236 21.555-4.884 43.827-4.884 66.417 0 20.92 1.403 41.544 4.188 61.635 98.171-42.957 177.203-122.307 219.709-220.652-39.311-7.291-81.664-9.226-123.935-5.192zM726.487 446.249c0-118.968-96.788-215.747-215.747-215.747-118.989 0-215.777 96.778-215.777 215.747s96.788 215.747 215.777 215.747c118.958 0 215.747-96.778 215.747-215.747zM352.133 839.516c3.123-21.146 4.69-43.028 4.69-65.403 0-20.173-1.341-40.264-3.983-59.935-42.547-25.477-78.203-60.539-104.356-102.636-41.769-5.386-85.535-4.864-125.921 1.362 43.633 102.769 126.3 184.371 229.571 226.611zM248.545 284.324c27.904-44.657 67.308-82.135 113.285-107.756 1.567-15.36 2.355-30.863 2.355-46.264 0-26.122-2.161-51.599-6.451-76.104-105.974 41.544-190.74 124.058-235.162 228.844 40.264 6.154 83.886 6.738 125.972 1.28zM688.835 63.857c-3.226 21.699-4.864 44.022-4.864 66.437 0 21.084 1.444 42.035 4.26 62.444 35.553 24.658 65.659 56.463 88.289 93.256 41.81 4.024 84.634 2.161 123.945-5.1-41.339-95.693-117.135-173.353-211.63-217.037z" />
<glyph unicode="&#xe924;" glyph-name="c" d="M519.731 957.112c-282.726 0-511.949-229.212-511.949-512 0-282.747 229.222-512 511.949-512 282.839 0 512.051 229.253 512.051 512 0 282.788-229.212 512-512.051 512zM606.976 101.038c-178.811 0-323.901 145.039-323.901 323.963 0 178.903 145.091 323.922 323.901 323.922 178.913 0 324.014-145.029 324.014-323.922 0-178.924-145.101-323.963-324.014-323.963zM630.569 688.466c-143.677 0-260.024-116.46-260.024-260.127 0-143.636 116.347-260.096 260.024-260.096 143.647 0 260.065 116.46 260.065 260.096 0.010 143.667-116.419 260.127-260.065 260.127zM691.671 291.041c-74.025 0-133.97 59.976-133.97 133.96 0 73.953 59.945 133.939 133.97 133.939s133.898-59.986 133.898-133.939c0-73.984-59.894-133.96-133.898-133.96z" />
<glyph unicode="&#xe925;" glyph-name="ca" d="M610.959 66.56c0-32.102-26.102-58.204-58.245-58.204h-447.539c-32.195 0-58.173 26.102-58.173 58.204v381.256c0 32.195 25.979 58.184 58.173 58.184h447.549c32.154 0 58.245-25.989 58.245-58.184l-0.010-381.256zM657.961 460.104h46.981v-407.747h-46.981v407.747zM1024 64.44c0-30.085-24.32-54.436-54.364-54.436l-217.702 108.82v274.811l217.702 108.81c30.044 0 54.364-24.381 54.364-54.456v-383.549zM171.356 887.634c-94.628 0-171.356-76.718-171.356-171.448 0-94.628 76.718-171.459 171.346-171.459 94.73 0 171.459 76.831 171.459 171.459 0.010 94.73-76.718 171.448-171.448 171.448zM166.226 627.917c-45.906 0-83.139 37.192-83.139 83.077 0 45.916 37.233 83.087 83.139 83.087 45.865 0 83.149-37.171 83.149-83.087 0-45.885-37.294-83.077-83.149-83.077zM542.904 887.634c-94.72 0-171.5-76.718-171.5-171.448 0-94.628 76.78-171.459 171.5-171.459 94.597 0 171.418 76.831 171.418 171.459 0 94.73-76.82 171.448-171.418 171.448zM540.283 627.917c-45.967 0-83.149 37.192-83.149 83.077 0 45.916 37.181 83.087 83.149 83.087 45.896 0 83.036-37.171 83.036-83.087 0-45.885-37.14-83.077-83.036-83.077z" />
<glyph unicode="&#xe926;" glyph-name="ca1" d="M905.677 439.798c51.681 0 93.839-41.81 93.839-93.501 0-56.422-48.64-98.396-102.595-93.46-8.366 0.758-15.974-2.836-20.9-9.687-39.905-56.596-90.46-105.441-148.214-144.005-7.229-4.557-11.028-12.554-10.25-21.084 3.604-36.884-12.554-74.865-57.774-93.676-156.57-65.157-333.619-64.399-489.411 1.72-115.333 49.213-40.868 224.584 74.455 175.36 108.493-45.978 233.134-46.172 341.801-1.137 37.048 15.391 70.124 7.803 93.655-11.387 7.803-6.646 18.821-7.035 27.382-1.126 46.541 32.102 87.583 71.977 120.996 117.576 5.888 8.192 5.888 18.821 0.205 26.993-41.923 59.259-1.659 147.415 76.81 147.415v0zM417.198 960c216.771 0 392.509-175.739 392.509-392.714 0-216.801-175.739-392.54-392.509-392.54-216.986 0-392.735 175.739-392.735 392.54 0.010 216.975 175.749 392.714 392.735 392.714v0zM417.198 676.536c60.406 0 109.23-48.845 109.23-109.251 0-60.232-48.824-109.261-109.23-109.261-60.232 0-109.445 49.029-109.445 109.261 0 60.416 49.213 109.251 109.445 109.251v0zM451.389 832.881c-14.234 1.925-24.125 14.828-22.241 28.887 1.71 14.234 14.848 24.32 28.897 22.415 134.513-17.285 243.579-117.975 271.677-250.798 3.062-13.865-5.878-27.546-19.937-30.403-13.865-3.021-27.546 6.072-30.403 19.958-23.562 111.35-114.944 195.512-227.994 209.94v0z" />
<glyph unicode="&#xe927;" glyph-name="ca2" d="M882.401 786.842h-139.878c-29.716 0-34.836 13.998-35.205 21.852 0 43.325-34.683 78.612-77.261 78.612h-235.96c-41.564 0-75.469-33.485-77.179-75.407-0.164-1.075-0.195-2.212-0.195-3.308 0-0.082-0.748-7.557-6.083-13.015-7.066-7.229-19.753-8.735-29.184-8.735h-139.858c-78.070 0-141.599-64.645-141.599-144.108v-489.892c0-79.483 63.529-144.138 141.599-144.138h740.803c78.080 0 141.599 64.655 141.599 144.138v489.892c0 79.462-63.519 144.108-141.599 144.108zM405.791 811.407v32.758h212.091v-32.758h0.297v-34.376h-212.388l-0.041 34.376h0.041zM511.98 192.317c-125.112 0-226.847 103.578-226.847 230.943 0 127.324 101.745 230.912 226.847 230.912s226.908-103.588 226.908-230.912c-0.010-127.365-101.806-230.943-226.908-230.943z" />
<glyph unicode="&#xe928;" glyph-name="ca3" d="M404.931 265.452l293.765 167.219-293.765 167.26v-334.479zM846.162 492.902h177.224c-21.729 250.552-223.365 449.516-475.085 467.098v-176.824c154.337-16.497 277.463-137.114 297.861-290.273zM846.285 404.091c-19.958-153.631-143.319-274.739-297.984-291.287v-176.804c252.058 17.603 453.878 217.037 475.177 468.091h-177.193zM177.756 404.091h-177.234c20.746-244.603 212.869-440.279 455.895-466.463v177.828c-145.551 24.187-259.533 141.466-278.661 288.635zM456.417 780.513v177.869c-242.688-26.163-434.657-221.358-455.793-465.48h177.234c19.517 146.698 133.325 263.506 278.559 287.611z" />
<glyph unicode="&#xe929;" glyph-name="cb" d="M827.525 851.671l-22.682-14.111-19.016 5.765-14.336 18.944-7.936-13.435 8.499-28.57-27.781 7.956-10.936 16.691-24.822 4.321-9.687 2.345-19.026-11.336 16.148-13.363 30.505 0.932 6.513-1.853-3.451-5.437 8.192-13.343-8.387-11.305-10.793-3.625-10.926 4.905 15.944 8.417 0.85 8.141-48.148 2.652-8.55 8.294-6.441-20.982-15.831-5.489-4.864-40.858 2.345-13.435-12.995-9.492-20.316-12.339-15.585-1.546-18.033 22.026-2.499 14.182 18.043 16.876 25.283 9.001-4.7 14.131-10.988-3.451-8.294 21.432 20.582 17.111 2.499 31.99 14.766 12.585 16.138 6.636 5.489 3.246-15.626 19.302-13.691-18.002-15.729 11.96-11.336-4.772-8.448 9.626 3.052 14.408 15.544 20.060-0.399 12.411c-117.944 21.955-243.968 3-354.898-62.945-0.348-0.205-0.696-0.389-1.004-0.573-96.492-57.6-167.014-142.275-208.077-238.469l22.077 13.394 13.128 0.42 21.033 7.096 5.786-6.42 30.321 16.579-9.738 7.086-26.665-14.95 2.703 9.513-6.349 5.673-23.777-14.193 14.377 34.836 24.883 14.838 21.279-9.093 20.070 10.506 4.854 18.278 11.438 0.881-6.697-25.334c0 0-22.118-13.681-21.023-13.056 1.137 0.676 11.028-14.234 11.028-14.234l26.583 16.896-1.403 9.042 17.93 12.216-4.352 12.257-12.022-4.669-2.253 12.073 6.892 7.537 30.075 16.005-7.342-24.228 9.339-9.738 18.33 7.444-13.343 19.784 11.090 18.033 26.522 20.326 52.193 6.349 9.39-15.688 15.135 4.567 0.85-16.353-18.678-11.141 3.052-17.541-48.65-15.38 22.876 37.806-19.282 3.215-26.675-20.9-0.993-4.096h-0.102l-0.102-0.942-3.154-13.588-13.036-9.339 5.202-6.185 5.939 0.87 1.147-2.365-10.138-8.243 3-7.004-10.342-6.943-9.595 11.735-15.739-17.285-25.467-46.356 14.039-13.527 15.227-0.604 23.726 10.056 14.879-24.904 9.144 7.67-2.304 25.027 18.883 21.299-17.828 29.891 7.137 17.51 35.717 11.336 9.595-21.064 8.438 5.018 16.23 25.078 16.63-25.283 22.835-0.205 8.489-15.78-6.687-7.895-6.103-7.188 4.096-4.454 8.387 0.952 16.23 1.802 5.949-10.793-5.345-3.85c-0.102 0.205-0.154 0.297-0.154 0.297l-7.987-1.987-20.982-5.1-5.693 7.219-0.051-0.031 4.25 9.175-4.352 7.137-8.745-2.652 1.997-7.711-12.237-10.138-1.597-0.348 0.399-0.645-4.239-3.553-8.397 5.448-5.54-0.727-9.595-5.724-2.253-6.175 4.751-7.956 9.841 2.171 8.786 3.717-1.352-1.905-2.499-12.585-5.693 2.12-8.294-2.365-8.54-29.972 3.84-0.553-19.282-33.116-10.24-44.247 5.652-13.64-16.486-34.007-5.335-21.535 17.582-26.163-23.767-2.447-9.288 15.882-51.896-30.966-18.729-29.655 1.147-28.416 5.591-19.835 17.428-12.042 22.733 10.066 20.132 42.568 9.636-9.39 1.352-25.518 28.17 10.957 26.173-38.042 38.656 14.991 6.84 39.107 30.372 10.619 17.428-7.526 25.027 17.029-3.901 8.1 18.381 1.556 31.171-15.596 27.965 16.179 20.931-11.776 14.531-21.033 37.714 6.666 38.973 22.723 22.467-11.807 20.439 4.751 5.878-17.336-4.577-35.164 26.122-56.177-8.94-23.562-25.682-14.295 0.297-19.579 0.102-0.143 22.518-23.603-1.454-11.694-4.987-39.813 0.799-21.299-18.575-28.18-15.626-12.861 3.645-7.741 14.080 3.748 3.236-8.745-4.577-16.824 11.52-4.321 13.199 7.373 5.304-10.445 2.376-11.96 3.697-8.704 28.918-4.721 2.437-9.943-26.419-15.145-39.66 7.199-41.564 23.542-17.715 36.076-27.566 11.315-14.541 38.38-10.639-2.847-44.954 75.233c0 0-37.161 4.116-38.615 3.267-1.495-0.881-15.483-4.823-15.483-4.823l-11.090 12.728-58.092 21.801-5.704 16.937-13.527 25.108 13.435 29.798-19.671 25.467-35.123-17.541-44.196 14.295-21.729-6.021-13.343-5.007-5.089 11.827-16.681-6.994 3.686-6.185-44.001-13.445-29.573 14.418-0.502 15.217-45.496 20.91-19.681 23.45-9.789-5.734 18.33-23.276 32.266-15.882 4.291-11.336-15.534-6.339-35.369 19.425-20.818 34.785-23.48-2.14-14.93 25.037c8.94-66.335 31.212-132.035 67.625-193.055 144.845-242.463 459.919-321.905 702.362-177.080 0.338 0.215 0.686 0.399 1.004 0.614 136.858 82.166 221.471 218.665 242.954 365.619l-14.541-8.694-17.428 29.256-30.259 12.585-21.043 35.133-20.357 5.1-9.851 13.978-2.345 40.755-63.386 36.045-18.381 39.107-29.46-13.711-16.404 4.116-18.565-11.11-4.291-14.438-32.87-19.651 0.614-3.604-18.237-10.885-70.584 22.733-21.924 37.509 5.376 6.687-5.939 15.78-9.841-5.888-12.995 12.585 27.617 64.082-14.776 24.883 15.892 27.423 10.179 4.741 19.579 11.735 10.445 17.357 47.012 33.29 15.084-25.201 44.81 13.363 10.926-0.881 7.086 4.25-8.141 13.742 21.125 15.596 30.935-3.144 35.062 20.931 1.085 3.738c-10.537 9.82-21.484 19.057-32.655 27.812zM545.096 852.808l0.297 8.612 12.759 11.54 14.080-15.38 15.145-7.823 8.591-2.847 11.428 1.976-2.437-15.688-16.015-11.786-12.8-7.639-7.639 16.036 9.288 8.54-5.151 6.595-13.578 0.297-9.779 0.573-4.188 6.994zM537.784 811.172l0.338 19.354 10.189 9.81 10.691 1.331 4.844-9.923-10.394-23.572-10.24-6.103-5.427 9.103zM331.141 614.42l-8.694-6.216-3.297 6.666 1.055 7.537 8.038-1.055 2.898-6.932zM356.557 644.844l-5.939-4.301 2.345-6.789-3.041-5.837-7.352-5.253c-1.29 1.649-2.294 2.898-2.294 2.898l-3-1.802-3.901 6.492 12.585 7.547-1.403 8.294 4.946 3.072 6.441 2.222 0.614-6.543z" />
<glyph unicode="&#xe92a;" glyph-name="cb1" d="M393.585 832c-17.039 0-30.925-13.875-30.925-30.935v-44.79c0-17.060 13.875-30.935 30.925-30.935h236.8c17.080 0 30.956 13.875 30.956 30.935v44.79c0 17.060-13.875 30.935-30.956 30.935h-17.265c3.635 10.025 5.54 22.19 5.54 33.29 0 50.749-42.865 94.71-96 94.71h-21.33c-53.125 0-96-44.38-96-97.29 0-11.295 1.925-20.695 5.54-30.71h-17.285zM469.33 896h85.33v-85.33h-85.33v85.33zM213.33 789.33c-69.755 0-128-58.245-128-128v-597.33c0-69.765 58.245-128 128-128h597.33c69.765 0 128 58.245 128 128v597.33c0 69.755-58.245 128-128 128h-85.32v-74.035c0-29.85-24.136-53.965-53.996-53.965h-318.72c-29.87 0-53.965 24.105-53.965 53.965v74.035h-85.33zM762.665 541.44c34.14-25.17 36.915-74.885 11.5-108.82l-251.505-337.684c-26.655-34.98-75.95-44.165-107.325-15.8-13.005 11.53-165.54 159.15-165.54 159.15-23.675 23.255-24.75 71.045 4.905 101.765 29.46 30.73 78.295 33.075 101.96 9.615l94.956-93.46 199.25 267.52c25.18 33.946 77.67 42.67 111.8 17.715z" />
<glyph unicode="&#xe92b;" glyph-name="cb2" d="M230.748 727.276c-1.055 0-1.997 0.543-3.113 0.635-1.106-0.092-1.966-0.635-3.113-0.635h6.226zM224.532 960c1.137 0 1.997-0.563 3.113-0.625 1.106 0.072 2.058 0.625 3.103 0.625h-6.216zM912.732 866.918h-76.134v46.561c0 24.556-18.248 44.083-41.421 45.906-23.060-1.833-41.4-21.35-41.4-45.906v-46.561h-484.7v46.561c0 24.556-18.35 44.083-41.441 45.906-23.112-1.833-41.359-21.35-41.359-45.906v-46.561h-74.885c-49.172 0-89.047-41.687-89.047-93.082v-139.643h979.313v139.643c0 51.384-39.772 93.082-88.924 93.082zM227.635 680.643c-36.884 0-66.796 31.365-66.796 69.837 0 22.067 10.035 41.605 25.436 54.436v-31.089c0-24.556 18.248-44.268 41.359-45.926 23.091 1.659 41.441 21.371 41.441 45.926v31.089c15.319-12.831 25.364-32.369 25.364-54.436 0-38.461-29.942-69.837-66.806-69.837zM795.177 680.643c-36.823 0-66.744 31.365-66.744 69.837 0 22.067 10.045 41.605 25.344 54.436v-31.089c0-24.556 18.34-44.268 41.4-45.926 23.173 1.659 41.421 21.371 41.421 45.926v31.089c15.401-12.831 25.436-32.369 25.436-54.436 0.010-38.461-29.952-69.837-66.857-69.837zM22.344 29.082c0-51.436 39.885-93.082 89.047-93.082h801.341c49.152 0 88.934 41.636 88.934 93.082v558.459h-979.323v-558.459zM801.403 448h133.499v-93.071h-133.499v93.071zM801.403 308.357h133.499v-93.082h-133.499v93.082zM801.403 168.643h133.499v-93.082h-133.499v93.082zM623.34 448h133.489v-93.071h-133.489v93.071zM623.34 308.357h133.489v-93.082h-133.489v93.082zM623.34 168.643h133.489v-93.082h-133.489v93.082zM445.235 448h133.53v-93.071h-133.53v93.071zM445.235 308.357h133.53v-93.082h-133.53v93.082zM445.235 168.643h133.53v-93.082h-133.53v93.082zM267.192 448h133.591v-93.071h-133.591v93.071zM267.192 308.357h133.591v-93.082h-133.591v93.082zM267.192 168.643h133.591v-93.082h-133.591v93.082zM89.108 448h133.622v-93.071h-133.622v93.071zM89.108 308.357h133.622v-93.082h-133.622v93.082zM89.108 168.643h133.622v-93.082h-133.622v93.082zM798.372 727.276c-1.167 0-2.007 0.543-3.195 0.635-1.065-0.092-2.017-0.635-3.082-0.635h6.277zM792.105 960c1.065 0 2.017-0.563 3.082-0.625 1.178 0.072 2.017 0.625 3.185 0.625h-6.267z" />
<glyph unicode="&#xe92c;" glyph-name="cc" d="M95.785 447.99c0 149.555 73.39 281.876 186.040 363.213-162.017-41.38-281.825-188.293-281.825-363.213 0-174.899 119.808-321.833 281.825-363.192-112.65 81.326-186.040 213.658-186.040 363.192zM223.191 447.99c0 94.075 46.162 177.285 117.002 228.413-101.898-26.020-177.244-118.395-177.244-228.413 0-109.998 75.336-202.394 177.244-228.393-70.84 51.118-117.002 134.339-117.002 228.393zM928.215 447.99c0 149.555-73.38 281.876-186.040 363.213 162.007-41.38 281.825-188.293 281.825-363.213 0-174.899-119.818-321.833-281.815-363.192 112.64 81.326 186.030 213.658 186.030 363.192zM815.483 447.99c0 94.075-46.152 177.285-117.012 228.413 101.908-26.020 177.254-118.395 177.254-228.413 0-109.998-75.325-202.394-177.254-228.393 70.861 51.118 117.012 134.339 117.012 228.393zM704.317 447.99c0-104.387-84.623-189.010-189.010-189.010s-189.010 84.623-189.010 189.010c0 104.387 84.623 189.010 189.010 189.010s189.010-84.623 189.010-189.010z" />
<glyph unicode="&#xe92d;" glyph-name="cc1" d="M583.68 683.52v153.6h-133.12v-153.6h-40.96v-225.28h40.96v-409.6h133.12v409.6h40.96v225.28h-40.96zM583.68 519.68h-133.12v112.64h133.12v-112.64zM95.785 465.295c0 149.555 73.39 281.876 186.040 363.213-162.017-41.38-281.825-188.293-281.825-363.213 0-174.899 119.808-321.833 281.825-363.192-112.65 81.316-186.040 213.668-186.040 363.192zM223.191 465.295c0 94.075 46.162 177.285 117.002 228.413-101.898-26.020-177.244-118.395-177.244-228.413 0-109.998 75.336-202.383 177.244-228.393-70.84 51.139-117.002 134.359-117.002 228.393zM928.215 465.295c0 149.555-73.38 281.876-186.040 363.213 162.007-41.38 281.825-188.293 281.825-363.213 0-174.899-119.818-321.833-281.815-363.192 112.64 81.316 186.030 213.668 186.030 363.192zM815.483 465.295c0 94.075-46.152 177.285-117.012 228.413 101.908-26.020 177.254-118.395 177.254-228.413 0-109.998-75.325-202.383-177.254-228.393 70.861 51.139 117.012 134.359 117.012 228.393z" />
<glyph unicode="&#xe92e;" glyph-name="cc2" d="M512 658.708c-103.803 0-187.935-84.142-187.935-187.924 0-39.209 12.012-75.561 32.532-105.687l146.186-296.253c1.741-3.523 5.294-5.755 9.216-5.755 3.891 0 7.475 2.232 9.175 5.755l146.176 296.264c20.531 30.136 32.563 66.499 32.563 105.697 0.031 103.762-84.111 187.904-187.914 187.904zM512 580.485c55.491 0 100.485-44.984 100.485-100.465 0-55.501-44.995-100.485-100.485-100.485-55.48 0-100.485 44.984-100.485 100.485 0.010 55.491 45.005 100.465 100.485 100.465zM623.299 325.1c-31.171-22.252-67.983-34.007-106.394-34.007-39.834 0-77.722 12.575-109.537 36.311-5.468 4.065-6.615 11.807-2.519 17.275 4.076 5.427 11.756 6.574 17.234 2.509 27.556-20.562 60.375-31.416 94.833-31.416 33.27 0 65.126 10.148 92.088 29.42 5.519 3.963 13.22 2.662 17.203-2.888 3.912-5.55 2.652-13.24-2.908-17.203zM95.785 469.699c0 149.565 73.39 281.887 186.040 363.213-162.017-41.38-281.825-188.293-281.825-363.213 0-174.899 119.808-321.823 281.825-363.203-112.65 81.326-186.040 213.688-186.040 363.203zM223.191 469.699c0 94.075 46.152 177.285 117.002 228.413-101.898-26.010-177.244-118.395-177.244-228.413 0-109.998 75.336-202.383 177.244-228.403-70.851 51.149-117.002 134.38-117.002 228.403zM928.215 469.699c0 149.565-73.38 281.887-186.061 363.213 162.028-41.38 281.846-188.293 281.846-363.213 0-174.899-119.818-321.823-281.836-363.203 112.66 81.326 186.051 213.688 186.051 363.203zM815.483 469.699c0 94.075-46.152 177.285-117.012 228.413 101.908-26.010 177.254-118.395 177.254-228.413 0-109.998-75.325-202.383-177.254-228.403 70.861 51.149 117.012 134.38 117.012 228.403z" />
<glyph unicode="&#xe92f;" glyph-name="cc3" d="M512-64c-282.317 0-512 229.683-512 512.010 0 282.307 229.683 511.99 512 511.99s512-229.683 512-511.99c0-282.327-229.683-512.010-512-512.010zM512 902.042c-250.358 0-454.042-203.674-454.042-454.031s203.684-454.052 454.042-454.052 454.042 203.694 454.042 454.052-203.684 454.031-454.042 454.031zM337.92 216.361v524.687l454.39-262.328z" />
<glyph unicode="&#xe930;" glyph-name="cc4" d="M95.785 457.513c0 149.545 73.39 281.866 186.040 363.203-162.017-41.39-281.825-188.293-281.825-363.203s119.808-321.833 281.825-363.192c-112.65 81.295-186.040 213.658-186.040 363.192zM223.181 457.513c0 94.065 46.162 177.275 117.002 228.403-101.898-26.010-177.234-118.395-177.234-228.403 0-109.998 75.336-202.383 177.234-228.403-70.84 51.139-117.002 134.359-117.002 228.403zM928.205 457.513c0 149.545-73.38 281.866-186.040 363.203 162.017-41.39 281.836-188.293 281.836-363.203 0-174.92-119.818-321.833-281.836-363.192 112.66 81.295 186.040 213.658 186.040 363.192zM815.483 457.513c0 94.065-46.162 177.275-117.023 228.403 101.908-26.010 177.265-118.395 177.265-228.403 0-109.998-75.336-202.383-177.265-228.403 70.861 51.139 117.023 134.359 117.023 228.403zM642.355 447.508c0-59.998-48.638-108.636-108.636-108.636s-108.636 48.638-108.636 108.636c0 59.998 48.638 108.636 108.636 108.636s108.636-48.638 108.636-108.636zM344.33 79.36l187.054 324.004 187.064-324.004z" />
<glyph unicode="&#xe931;" glyph-name="cd" d="M273.121 817.316l-68.342 68.332c-116.89-87.91-194.98-224.256-204.769-380.211h97.577c9.8 131.604 73.144 243.784 175.534 311.88v0zM926.464 505.436h97.526c-9.667 155.945-82.821 292.301-199.905 380.211l-68.403-68.332c97.608-68.096 161.004-180.275 170.783-311.88v0zM829.051 480.891c0 151.204-102.38 273.162-243.814 307.128v34.273c0 39.096-34.314 73.165-73.339 73.165-38.779 0-73.052-34.058-73.052-73.165v-34.273c-141.486-33.966-243.845-155.935-243.845-307.128v-268.022l-97.413-97.7v-48.814h828.877v48.814l-97.423 97.7 0.010 268.022zM511.898-79.79h19.517c34.263 4.751 58.563 29.286 68.321 58.532 5.038 9.8 9.8 24.351 9.8 39.045h-195c0-53.811 43.817-97.577 97.362-97.577v0z" />
<glyph unicode="&#xe932;" d="M844.882 524.718c0 158.761-107.479 286.822-256.010 322.488v35.983c0 41.052-36.014 76.81-76.995 76.81-40.745 0-76.718-35.758-76.718-76.82v-35.983c-148.552-35.666-256.041-163.727-256.041-322.488v-281.405l-102.277-102.605v-51.241h870.318v51.241l-102.277 102.605v281.416zM511.877-64h20.5c35.973 4.977 61.481 30.761 71.731 61.46 5.294 10.281 10.281 25.559 10.281 40.98h-204.749c0-56.484 45.998-102.441 102.236-102.441v0z" />
<glyph unicode="&#xe933;" d="M319.662 701.993v-96.154h-32.061v-128.225h32.061v-224.42h64.113v224.42h32.061v128.236h-32.061v96.154l-64.113-0.010zM319.662 573.768h64.113v-64.113h-64.113v64.113zM479.939 701.993v-224.379h-32.051v-128.256h32.051v-96.164h64.133v96.164h32.051v128.256h-32.051v224.379h-64.133zM479.939 445.542h64.133v-64.123h-64.133v64.123zM640.215 701.993v-160.266h-32.041v-128.246h32.041v-160.276h64.123v160.276h32.082v128.246h-32.082v160.266h-64.123zM640.215 509.655h64.123v-64.113h-64.123v64.113z" />
<glyph unicode="&#xe934;" d="M844.882 524.718c0 158.761-107.479 286.822-256.010 322.488v35.983c0 41.052-36.014 76.81-76.995 76.81-40.745 0-76.718-35.758-76.718-76.82v-35.983c-148.552-35.666-256.031-163.727-256.031-322.488v-281.405l-102.287-102.605v-51.241h870.318v51.241l-102.277 102.605v281.416zM511.877-64h20.5c35.973 4.977 61.491 30.761 71.731 61.46 5.294 10.281 10.281 25.559 10.281 40.98h-204.749c0-56.484 45.998-102.441 102.236-102.441v0z" />
<glyph unicode="&#xe935;" d="M757.76 606.29c0 48.312-39.158 87.47-87.46 87.47h-306.36c-48.302 0-87.46-39.158-87.46-87.47v-193.7c0-48.312 39.158-87.47 87.46-87.47h306.36c48.302 0 87.46 39.158 87.46 87.47v193.7zM727.040 402.944c0-25.999-21.084-47.104-47.104-47.104h-305.162c-26.010 0-47.094 21.105-47.094 47.104v202.752c0 26.020 21.084 47.104 47.094 47.104h305.183c25.999 0 47.084-21.084 47.084-47.104v-202.752z" />
<glyph unicode="&#xe936;" d="M621.056 304.64h-215.286c-14.868 0-26.911-15.862-26.911-30.72s12.042-30.72 26.911-30.72h215.286c14.858 0 26.921 15.862 26.921 30.72s-12.032 30.72-26.921 30.72z" />
<glyph unicode="&#xe937;" d="M844.882 524.718c0 158.761-107.479 286.822-256.010 322.488v35.983c0 41.052-36.014 76.81-76.995 76.81-40.745 0-76.718-35.758-76.718-76.82v-35.983c-148.552-35.666-256.031-163.727-256.031-322.488v-281.405l-102.287-102.605v-51.241h870.318v51.241l-102.277 102.605v281.416zM511.877-64h20.5c35.973 4.977 61.491 30.761 71.731 61.46 5.294 10.281 10.281 25.559 10.281 40.98h-204.749c0-56.484 45.998-102.441 102.236-102.441v0z" />
<glyph unicode="&#xe938;" d="M604.16 663.040h92.16v-92.16h-92.16v92.16z" />
<glyph unicode="&#xe939;" d="M604.16 509.44h92.16v-266.24h-92.16v266.24z" />
<glyph unicode="&#xe93a;" d="M460.8 663.040h92.16v-92.16h-92.16v92.16z" />
<glyph unicode="&#xe93b;" d="M460.8 509.44h92.16v-266.24h-92.16v266.24z" />
<glyph unicode="&#xe93c;" d="M327.68 663.040h92.16v-92.16h-92.16v92.16z" />
<glyph unicode="&#xe93d;" d="M327.68 509.44h92.16v-266.24h-92.16v266.24z" />
<glyph unicode="&#xe93e;" d="M844.882 524.718c0 158.761-107.479 286.822-256.010 322.488v35.983c0 41.052-36.014 76.81-76.995 76.81-40.745 0-76.718-35.758-76.718-76.82v-35.983c-148.552-35.666-256.041-163.727-256.041-322.488v-281.405l-102.277-102.605v-51.241h870.318v51.241l-102.277 102.605v281.416zM511.877-64h20.5c35.973 4.977 61.481 30.761 71.731 61.46 5.294 10.281 10.281 25.559 10.281 40.98h-204.749c0-56.484 45.998-102.441 102.236-102.441v0z" />
<glyph unicode="&#xe93f;" d="M568.801 709.642l-170.496-36.925-64.932-280.996 170.506 22.18-32.512-236.605 219.249 362.342-211.118-29.563z" />
<glyph unicode="&#xe940;" glyph-name="ce" d="M1024 562.975l-367.575 32.42-144.435 339.558-144.425-339.558-367.565-32.42 278.282-242.319-82.77-359.598 316.477 189.798 316.447-189.798-82.729 359.598 278.292 242.319zM532.48 249.682v393.626l54.221-110.674 6.318-14.234 17.859-1.362 228.7-16.988-187.3-137.124 4.065-15.063 53.228-188.436-177.091 90.255z" />
<glyph unicode="&#xe941;" glyph-name="d" d="M613.089 477.501l-151.982 118.323-140.073-87.009-74.066 156.211-90.348-48.067 123.965-257.618 177.746 108.616 161.331-131.021 255.621 307.005-70.001 59.566zM846.664 960h-661.391c-98.355 0-185.272-81.050-185.272-179.384v-508.754c0-98.365 86.917-192.502 185.272-192.502h280.166l-22.62-61.44h-141.302c-18.729 0-33.925-21.279-33.925-40.96 0-19.62 15.186-40.96 33.925-40.96h440.924c18.729 0 33.925 21.34 33.925 40.96 0 19.681-15.176 40.96-33.925 40.96h-141.312l-22.61 61.44h268.145c98.335 0 177.336 94.136 177.336 192.502v508.754c0 98.335-79.002 179.384-177.336 179.384zM931.84 257.464c0-42.168-39.035-75.704-81.203-75.704h-660.050c-42.148 0-67.707 33.536-67.707 75.704v513.782c0 42.138 25.559 76.114 67.707 76.114h660.050c42.158 0 81.203-33.976 81.203-76.114v-513.782z" />
<glyph unicode="&#xe942;" glyph-name="da" d="M524.472 490.301c2.898-2.97 6.912-4.628 11.059-4.628h471.306c4.485 0 8.694 1.905 11.674 5.212 2.97 3.308 4.434 7.731 3.953 12.175-13.414 126.3-72.479 242.176-166.113 326.298-93.798 84.244-215.542 130.642-342.907 130.642-116.47 0-230.42-40.172-321.034-113.132-3.482-2.775-5.591-6.912-5.827-11.377-0.205-4.454 1.495-8.776 4.618-11.919l333.271-333.271zM460.913 669.317l135.127 201.042c15.575-3.052 30.935-6.932 46.008-11.684l-147.907-222.618-33.229 33.26zM513.444 878.326c4.004 0 8.079-0.061 12.206-0.195l-109.988-163.584-35.635 35.645 88.044 125.757c15.053 1.556 30.331 2.376 45.373 2.376v0zM377.795 856.525l-42.875-61.204-29.542 29.491c19.128 10.568 39.148 19.712 59.648 27.238 4.178 1.597 8.458 3.041 12.769 4.475v0zM778.455 567.347l86.077 129.505c5.857-8.346 11.622-16.968 16.968-25.805l-71.229-103.711-31.816 0.010zM886.518 567.347l26.993 39.342c5.11-12.882 9.605-26.061 13.466-39.342h-40.458zM651.909 567.347l139.151 209.388c4.516-3.758 8.837-7.588 12.964-11.346 6.205-5.724 12.421-11.776 18.555-18.115l-119.501-179.927h-51.169zM576.522 567.347h-13.691l-23.388 23.388 162.335 244.255c13.189-6.42 26.112-13.517 38.482-21.207l-163.738-246.436zM456.98 451.133l-319.099 319.109c-3.133 3.144-7.496 4.833-11.96 4.567-4.454-0.215-8.612-2.355-11.397-5.837-72.96-90.573-113.070-204.554-113.070-320.983 0-159.468 72.274-306.985 198.339-404.726 2.796-2.14 6.185-3.297 9.636-3.297 0.932 0 1.874 0.092 2.847 0.256 4.342 0.819 8.192 3.42 10.568 7.24l236.37 384.379c3.799 6.175 2.867 14.152-2.232 19.292v0zM362.394 430.223l-167.188-271.8c-26.102 28.58-48.046 60.355-65.464 94.495-30.976 60.723-46.633 126.382-46.633 195.082 0 51.077 8.786 100.997 26.245 148.367 7.537 20.552 16.66 40.561 27.249 59.668l225.792-225.812zM1006.838 410.276h-463.534c-5.478 0-10.516-2.816-13.414-7.455l-242.893-394.936c-2.355-3.799-2.949-8.397-1.669-12.677 1.239-4.26 4.26-7.823 8.315-9.718 68.884-32.85 142.828-49.49 219.802-49.49 127.365 0 249.108 46.377 342.907 130.601 93.635 84.163 152.699 200.038 166.113 326.339 0.481 4.424-0.963 8.817-3.953 12.145-2.98 3.318-7.188 5.192-11.674 5.192v0z" />
<glyph unicode="&#xe943;" glyph-name="da1" d="M926.341 918.886h-828.723c-53.903 0-97.618-43.715-97.618-97.649v-494.52c0-53.924 43.715-97.628 97.608-97.628h262.523l-150.753-251.965h605.184l-150.743 251.965h262.523c53.944 0 97.659 43.715 97.659 97.628v494.52c0 53.934-43.725 97.649-97.659 97.649zM947.958 301.036h-871.956v545.833h871.956v-545.833zM372.009 411.218h-80.015v260.362h80.015v-260.362zM491.971 411.218h-80.015v376.883h80.015v-376.883zM612.045 411.218h-80.026v123.607h80.026v-123.607zM731.976 411.218h-80.015v211.63h80.015v-211.63zM731.976 359.823h-439.992v21.78h439.992v-21.78z" />
<glyph unicode="&#xe944;" glyph-name="da2" d="M281.057 37.683c80.261 115.118 124.242 248.996 128.143 389.796h-408.678c7.117-181.043 108.216-337.797 255.877-423.076 0.563 0.676 13.885 17.357 24.658 33.28zM292.905 910.52c9.984-11.684 25.037-33.485 25.037-33.485 83.016-120.965 128.358-261.284 132.219-408.596h123.679c3.86 147.323 49.203 287.601 132.198 408.596 0 0 16.364 21.197 25.876 33.403 12.544-6.001 24.719-12.524 36.639-19.436-75.448 43.796-163.031 68.997-256.573 68.997-93.42 0-180.941-25.16-256.317-68.844 12.073 6.963 24.535 13.322 37.243 19.364zM743.404 858.040c-80.241-115.159-124.283-248.883-128.205-389.601h408.279c-7.117 180.603-107.756 337.121-254.853 422.523-0.543-0.686-16.742-20.48-25.221-32.922zM408.801 468.439c-3.922 140.759-47.964 274.483-128.205 389.601-7.076 10.68-17.265 23.603-24.975 33.075-147.241-85.391-247.982-241.951-255.099-422.676h408.279zM614.799 427.479c3.901-140.841 47.821-274.719 128.061-389.837 7.004-10.24 24.658-32.276 25.18-32.922-11.756-6.84-23.777-13.281-36.116-19.159 166.871 79.514 283.884 246.641 291.564 441.917h-408.689zM706.038 18.964c-82.985 120.965-128.338 261.12-132.198 408.535h-123.679c-3.86-147.374-49.203-287.56-132.219-408.535 0 0-15.503-20.92-25.702-33.485-12.124 5.765-23.9 12.083-35.461 18.719 75.141-43.284 162.222-68.198 255.201-68.198 78.684 0 153.201 17.797 219.822 49.521-11.725 13.24-25.764 33.444-25.764 33.444z" />
<glyph unicode="&#xe945;" glyph-name="da3" d="M977.418 187.443h-46.561v217.18c0 11.602-4.803 22.477-13.64 30.7-8.724 8.131-20.439 12.636-32.86 12.636h-325.796v130.386h325.796c25.743 0 46.541 19.415 46.541 43.346v260.68c0 23.931-20.797 43.346-46.541 43.346h-744.673c-25.784 0-46.592-19.415-46.592-43.346v-260.68c0-23.941 20.808-43.346 46.592-43.346h325.786v-130.386h-325.868c-12.216 0-24.207-4.577-32.973-12.636-8.622-8.141-13.537-19.241-13.537-30.7v-217.18h-46.51c-25.682 0-46.592-19.415-46.592-43.52v-130.202c0-24.023 20.91-43.438 46.592-43.438h186.204c25.702 0 46.428 19.415 46.428 43.438v130.202c0 24.105-20.726 43.52-46.428 43.52h-46.674v173.732h279.357v-173.742h-46.572c-25.743 0-46.51-19.415-46.51-43.52v-130.191c0-24.023 20.767-43.438 46.51-43.438h186.194c25.795 0 46.52 19.415 46.52 43.438v130.202c0 24.105-20.726 43.52-46.52 43.52h-46.541v173.732h279.235v-173.742h-46.561c-25.661 0-46.479-19.415-46.479-43.52v-130.191c0-24.023 20.818-43.438 46.479-43.438h186.204c25.702 0 46.582 19.415 46.582 43.438v130.202c-0.010 24.095-20.89 43.52-46.592 43.52z" />
<glyph unicode="&#xe946;" glyph-name="da4" d="M926.341 918.886h-828.723c-53.903 0-97.618-43.715-97.618-97.649v-494.52c0-53.924 43.715-97.628 97.608-97.628h262.523l-150.753-251.965h605.184l-150.743 251.965h262.523c53.944 0 97.659 43.715 97.659 97.628v494.52c0 53.934-43.725 97.649-97.659 97.649zM947.958 301.036h-871.956v545.833h871.956v-545.833zM385.321 495.882c-28.662 0-51.917-23.235-51.917-51.896 0-28.641 23.255-51.896 51.917-51.896 28.652 0 51.876 23.255 51.876 51.896 0.010 28.662-23.224 51.896-51.876 51.896zM694.077 495.882c-28.662 0-51.917-23.235-51.917-51.896 0-28.641 23.255-51.896 51.917-51.896s51.896 23.255 51.896 51.896c0.010 28.662-23.235 51.896-51.896 51.896zM867.482 622.080h-120.177l-27.863 96.512c0 11.674-9.441 16.128-21.135 16.128h-376.422c-11.674 0-21.146-4.465-21.146-16.128l-22.938-96.512h-103.946c-11.715 0-20.255-4.065-20.255-13.701v-146.903c0-9.656 8.54-33.956 20.255-33.956h129.884c0 61.44 36.536 81.572 81.592 81.572 45.015 0 81.551-20.132 81.551-81.572h145.644c0 61.44 36.495 81.572 81.572 81.572 45.025 0 81.541-20.132 81.541-81.572h91.863c11.674 0 23.378 24.3 23.378 33.956v146.903c0 9.636-11.704 13.701-23.398 13.701z" />
<glyph unicode="&#xe947;" glyph-name="dc" d="M855.020 409.938v212.419l-343.020 278.968-343.040-278.968v-212.419l-168.96-82.422v-332.841h461.107v213.903h101.796v-213.903h461.097v332.841l-168.98 82.422zM324.741 79.544h-189.757v133.632h189.757v-133.632zM384.287 447.99h-101.775v147.794h101.775v-147.794zM562.903 447.99h-101.796v147.794h101.796v-147.794zM639.703 595.784h101.796v-147.804h-101.796v147.804zM888.996 79.544h-189.757v133.632h189.757v-133.632z" />
<glyph unicode="&#xe948;" glyph-name="dc1" d="M512.010-34.15c-257.085 0-466.237 209.162-466.237 466.248 0 257.065 209.152 466.217 466.237 466.217s466.248-209.152 466.248-466.217c0-257.085-209.162-466.248-466.248-466.248zM512.010 868.465c-240.62 0-436.378-195.758-436.378-436.357 0-240.64 195.758-436.408 436.378-436.408s436.388 195.768 436.388 436.408c0 240.589-195.768 436.357-436.388 436.357zM512.010 111.749c-176.63 0-320.328 143.708-320.328 320.348 0 176.63 143.698 320.297 320.328 320.297 176.64 0 320.328-143.667 320.328-320.297 0-176.64-143.688-320.348-320.328-320.348zM512.010 722.555c-160.164 0-290.478-130.324-290.478-290.458 0-160.205 130.324-290.488 290.478-290.488 160.174 0 290.468 130.314 290.468 290.488 0 160.143-130.294 290.458-290.468 290.458zM512.010 255.478c-97.382 0-176.609 79.217-176.609 176.62 0 97.382 79.227 176.589 176.609 176.589 97.362 0 176.62-79.206 176.62-176.589s-79.258-176.62-176.62-176.62zM512.010 578.836c-80.906 0-146.749-65.833-146.749-146.739 0-80.937 65.843-146.77 146.749-146.77s146.749 65.833 146.749 146.77c0 80.916-65.843 146.739-146.749 146.739zM512.010-64c-273.562 0-496.108 222.556-496.108 496.097s222.546 496.097 496.108 496.097v-89.569c-224.174 0-406.538-182.374-406.538-406.518 0-224.195 182.374-406.538 406.538-406.538 224.154 0 406.518 182.374 406.518 406.538h89.569c0-273.551-222.525-496.108-496.087-496.108zM512.010 81.9c-193.096 0-350.188 157.112-350.188 350.198 0 193.065 157.092 350.167 350.188 350.167v-89.549c-143.708 0-260.639-116.931-260.639-260.618 0-143.739 116.931-260.618 260.639-260.618 143.718 0 260.618 116.879 260.618 260.618h89.58c0-193.085-157.092-350.198-350.198-350.198zM512.010 225.638c-113.848 0-206.449 92.6-206.449 206.459 0 113.848 92.6 206.449 206.449 206.449v-89.549c-64.461 0-116.879-52.46-116.879-116.9 0-64.481 52.419-116.92 116.879-116.92 64.471 0 116.89 52.439 116.89 116.92h89.569c0-113.859-92.611-206.459-206.459-206.459zM476.293 960h71.444v-444.979h-71.444v444.979z" />
<glyph unicode="&#xe949;" d="M964.659 709.878h-190.822v117.064c0 73.38-59.658 133.048-133.038 133.048h-257.597c-73.38 0-133.048-59.668-133.048-133.048v-117.064h-190.853c-31.017 0-56.146-25.149-56.146-56.146v-661.565c0-30.986 25.129-56.136 56.146-56.136h905.359c31.058 0 56.197 25.149 56.197 56.136v661.565c0 30.996-25.139 56.146-56.197 56.146zM343.747 826.941c0 21.76 17.705 39.455 39.465 39.455h257.597c21.76 0 39.455-17.695 39.455-39.455v-117.064h-336.517v117.064z" />
<glyph unicode="&#xe94a;" d="M750.060 604.744c-32.625 32.635-80.62 33.464-109.722 4.342l-324.977-325.007c29.082 29.123 77.097 28.314 109.701-4.321 32.645-32.635 33.444-80.599 4.342-109.722l324.977 325.007c29.102 29.102 28.303 77.097-4.321 109.701z" />
<glyph unicode="&#xe94b;" d="M256 151.040h460.8v-61.44h-460.8v61.44z" />
<glyph unicode="&#xe94c;" d="M315.361 284.078l-77.681-183.060 191.724 69.018c0 0 43.756 85.084-18.473 121.303-62.228 36.198-95.57-7.26-95.57-7.26z" />
<glyph unicode="&#xe94d;" glyph-name="dd" d="M505.692 301.619h-217.641c4.526-12.698 7.117-26.317 7.117-40.602 0-14.223-2.591-27.761-7.117-40.499h427.121c-4.526 12.739-7.107 26.276-7.107 40.499 0 14.285 2.58 27.904 7.107 40.602h-209.48zM349.686 351.16v281.528c0 21.064-14.203 38.339-31.621 38.339h-68.342c-17.388 0-42.813-10.598-56.535-23.583l-161.454-152.719c-13.701-12.943-31.642-40.745-31.642-61.85l-0.092-172.759c0-18.565 21.514-39.598 40.028-39.598h18.985c-4.536 12.739-7.066 26.276-7.066 40.499 0 18.565 4.168 36.116 11.602 51.896h0.143c19.517 41.103 61.327 69.765 109.865 69.765s90.358-28.662 109.885-69.765h34.642c17.408 0.010 31.601 17.183 31.601 38.246zM297.052 459.295c-0.788 0-1.434-0.87-1.434-1.946 0-1.106-6.103-1.997-13.507-1.997h-12.38c-7.434 0-13.507 0.891-13.507 1.997 0 1.075-0.676 1.946-1.434 1.946-0.778 0-1.403 1.772-1.403 3.963 0 2.15 6.083 3.891 13.486 3.891h18.022c7.444 0 13.507-1.741 13.507-3.891 0.010-2.191-0.614-3.963-1.352-3.963zM311.767 521.994c0-3.717-3.062-6.738-6.758-6.738h-163.471c-3.707 0-6.728 3.021-6.728 6.738v5.151c0 3.717 2.202 8.847 4.884 11.387l86.548 81.889c2.744 2.529 7.977 4.618 11.684 4.618h67.092c3.697 0 6.758-3.041 6.758-6.728l-0.010-96.317zM173.537 369.183c-59.709 0-108.155-48.425-108.155-108.165 0-59.679 48.435-108.083 108.155-108.083 59.658 0 108.083 48.404 108.083 108.083 0 59.74-48.425 108.165-108.083 108.165zM180.705 314.337c9.533-1.26 18.186-4.936 25.467-10.496l-25.467-25.457v35.953zM206.152 218.276c-7.25-5.581-15.933-9.257-25.436-10.537v35.963l25.436-25.426zM226.836 253.86c-1.3-9.503-4.956-18.156-10.496-25.436l-25.477 25.436h35.973zM226.836 268.237h-35.983l25.477 25.436c5.55-7.291 9.206-15.933 10.506-25.436zM215.296 294.922c-2.355 2.939-4.997 5.581-7.926 7.916 2.929-2.355 5.55-4.997 7.926-7.916zM166.349 243.702v-35.963c-9.492 1.28-18.166 4.956-25.446 10.537l25.446 25.426zM120.177 268.237c1.311 9.503 4.987 18.135 10.568 25.436l25.446-25.436h-36.014zM140.902 303.841c7.281 5.56 15.964 9.236 25.446 10.496v-35.963l-25.446 25.467zM139.735 302.879c-2.939-2.376-5.622-5.059-8.038-8.038 2.417 2.959 5.048 5.642 8.038 8.038zM156.201 253.86l-25.446-25.436c-5.581 7.26-9.257 15.923-10.568 25.436h36.014zM131.686 227.256c2.376-2.939 5.059-5.581 7.967-7.956-2.939 2.376-5.581 5.018-7.967 7.956zM207.473 219.341c2.867 2.345 5.468 4.936 7.834 7.844-2.365-2.908-4.966-5.509-7.834-7.844zM829.655 369.183c-59.699 0-108.093-48.425-108.093-108.165 0-59.679 48.394-108.083 108.093-108.083 59.761 0 108.134 48.404 108.134 108.083 0 59.74-48.374 108.165-108.134 108.165zM836.864 314.337c9.523-1.26 18.166-4.936 25.457-10.496l-25.457-25.457v35.953zM862.321 218.255c-7.291-5.581-15.964-9.236-25.457-10.516v35.963l25.457-25.446zM882.995 253.86c-1.28-9.523-4.925-18.176-10.486-25.457l-25.477 25.457h35.963zM882.995 268.237h-35.983l25.436 25.436c5.581-7.291 9.267-15.933 10.547-25.436zM871.578 294.799c-2.406 3-5.14 5.704-8.090 8.079 2.949-2.396 5.683-5.1 8.090-8.079zM822.518 243.702v-35.963c-9.523 1.26-18.176 4.936-25.467 10.537l25.467 25.426zM776.335 268.237c1.3 9.503 4.966 18.135 10.506 25.436l25.508-25.436h-36.014zM797.030 303.821c7.311 5.581 15.995 9.277 25.487 10.516v-35.963l-25.487 25.446zM795.73 302.735c-2.867-2.335-5.468-4.915-7.854-7.834 2.386 2.898 4.966 5.499 7.854 7.834zM812.37 253.86l-25.508-25.436c-5.54 7.281-9.236 15.954-10.516 25.436h36.024zM787.876 227.185c2.365-2.847 4.946-5.437 7.782-7.782-2.847 2.335-5.437 4.915-7.782 7.782zM863.539 219.279c2.97 2.396 5.642 5.059 8.038 8.018-2.406-2.959-5.069-5.622-8.038-8.018zM1000.776 270.479c-1.362 17.316-15.862 31.14-33.495 31.14h-23.060c4.516-12.698 7.096-26.317 7.096-40.602 0-14.223-2.58-27.761-7.096-40.499h23.060c13.937 0 26.040 8.581 31.171 20.777 8.612 0.604 17.172 1.782 25.549 3.881v29.921c-7.649-2.294-15.36-3.799-23.224-4.618zM1012.449 346.675v362.619c0 18.565-15.165 33.772-33.741 33.772h-581.171c-18.596 0-33.751-15.196-33.751-33.772v-362.619c0-18.596 15.145-33.761 33.751-33.761h322.304c19.476 41.103 61.327 69.765 109.824 69.765 48.558 0 90.419-28.662 109.896-69.765h39.148c18.575 0.010 33.741 15.165 33.741 33.761zM594.371 473.539c-0.154 0.809-18.586 4.168-64.922-45.67-6.789-7.332-13.097-14.479-18.616-21.279-4.649 5.315-10.875 4.588-14.336 8.182 49.582 52.92 177.285 152.156 272.794 183.173 0 0-113.367 9.718-223.252-106.004 0 0-58.685 185.19 334.612 156.938-0.010 0-147.108-305.623-286.28-175.34z" />
<glyph unicode="&#xe94e;" glyph-name="dd1" d="M659.323 563.804l246.702-430.305c69.079-120.484 49.551-177.019-100.7-177.019-195.584 0-391.045 0-586.578 0-150.282 0-169.851 56.535-100.803 177.009 81.521 141.988 162.836 283.996 244.357 425.912 59.382 103.66 59.382 107.151 59.382 177.428v147.548c0 11.735 0 12.227-12.923 12.227-29.563 0-29.563 42.906 0 42.906 68.762 0 137.81 0 206.551 0 29.553 0 29.553-42.906 0-42.906-12.954 0-12.954-0.276-12.954-12.411 0-48.824 0-97.495 0-146.156 0.010-75.878 1.167-77.056 56.965-174.234v0zM402.401 540.324c-45.179-78.746-90.419-157.542-135.639-236.349-23.224-40.94-21.125-44.605 22.006-44.605 147.845 0 295.526 0 443.433 0 49.265 0 49.050 2.58 25.19 44.268-45.435 79.145-90.808 158.136-136.366 237.24-62.72 109.445-63.662 111.729-63.662 195.953v147.057c0 12.442-0.215 12.718-14.418 12.718-20.736 0-41.38 0-62.106 0-14.121 0-14.121-0.276-14.121-14.797 0-48.22 0-96.195 0-144.466 0-84.736-1.229-87.020-64.317-197.018v0z" />
<glyph unicode="&#xe94f;" glyph-name="dd2" d="M612.536 473.16c0-58.665-45.015-106.158-100.536-106.158s-100.516 47.503-100.516 106.158c0 58.593 44.995 106.127 100.516 106.127 55.542 0 100.536-47.534 100.536-106.127zM597.75 321.444c-25.201-15.575-54.446-24.637-85.76-24.637-31.324 0-60.518 9.073-85.74 24.637l-99.236-181.34-59.331-108.595c71.813-44.063 155.218-69.366 244.337-69.366 89.098 0 172.462 25.334 244.296 69.366l-158.566 289.935zM512.020-64c-90.153 0-178.934 25.231-256.737 72.95l-21.299 13.046 183.316 335.217 21.463-13.271c44.595-27.607 101.919-27.566 146.514 0l21.412 13.271 183.368-335.217-21.299-13.046c-77.834-47.718-166.595-72.95-256.737-72.95zM301.711 41.585c64.891-34.98 137.114-53.422 210.309-53.422 73.175 0 145.377 18.442 210.299 53.422l-134.318 245.576c-48.015-21.596-103.946-21.596-152.013 0l-134.277-245.576zM592.404 634.675c53.053-30.065 89.16-88.945 89.661-156.815h317.174c-0.502 191.775-100.475 358.748-248.279 446.74l-158.556-289.925zM1024 451.779h-366.49l-0.174 25.897c-0.399 56.084-29.757 107.448-76.646 134.042l-22.426 12.749 183.511 335.534 21.299-12.667c160.399-95.519 260.321-275.384 260.833-469.422l0.092-26.132zM705.024 503.931h268.78c-8.438 156.672-88.34 300.36-213.975 384.686l-134.144-245.176c43.5-33.024 72.172-83.517 79.34-139.51zM342.016 473.149c0 1.085-0.184 2.171-0.184 3.297 0 65.055 32.932 121.917 82.104 153.405l-158.638 290.048c-143.923-89.354-240.558-254.454-240.558-443.464 0-1.116 0.051-2.212 0.113-3.297l317.164 0.010zM366.725 447.058h-366.326l-0.287 25.743c-0.061 1.608-0.113 2.601-0.113 3.635 0 190.577 96.87 369.091 252.764 465.94l21.473 13.322 183.142-334.889-20.634-13.21c-43.95-28.191-70.185-77.21-70.185-131.164 0.082-0.881 0.174-2.089 0.174-3.297l-0.010-26.081zM49.92 499.19h268.39c5.673 54.815 31.744 104.253 72.878 138.394l-134.513 245.903c-122.491-85.832-199.823-229.468-206.756-384.297z" />
<glyph unicode="&#xe950;" glyph-name="dd3" d="M979.743 94.095c-24.32 0-44.237 12.8-44.237 28.436 0 15.657-38.4 28.447-85.34 28.447h-676.352c-46.94 0-85.32-12.79-85.32-28.447 0-15.636-19.917-28.436-44.257-28.436-24.33 0-44.237-28.426-44.237-63.222 0-34.765 38.4-63.181 85.35-63.181h853.32c46.92 0 85.34 28.416 85.34 63.181-0.010 34.796-19.927 63.222-44.268 63.222zM297.083 305.869c0-46.95-29.87-85.33-66.365-85.33s-66.386 38.38-66.386 85.33v176.968c0 46.961 29.891 85.35 66.386 85.35s66.365-38.39 66.365-85.35v-176.968zM578.355 305.869c0-46.95-29.86-85.33-66.365-85.33-36.516 0-66.355 38.38-66.355 85.33v176.968c0 46.961 29.839 85.35 66.355 85.35 36.506 0 66.365-38.39 66.365-85.35v-176.968zM859.638 305.869c0-46.95-29.839-85.33-66.355-85.33s-66.355 38.38-66.355 85.33v176.968c0 46.961 29.839 85.35 66.355 85.35s66.355-38.39 66.355-85.35v-176.968zM72.991 688.2c-40.161-24.289-34.601-44.155 12.349-44.155h878.592c46.94 0 52.091 19.169 11.397 42.629l-389.386 224.471c-40.684 23.46-106.783 22.743-146.944-1.546l-366.008-221.399z" />
<glyph unicode="&#xe951;" glyph-name="dd4" d="M327.363 232.919c0-63.069-51.128-114.196-114.196-114.196s-114.196 51.128-114.196 114.196c0 63.069 51.128 114.196 114.196 114.196s114.196-51.128 114.196-114.196zM890.399 232.919c0-63.069-51.128-114.196-114.196-114.196s-114.196 51.128-114.196 114.196c0 63.069 51.128 114.196 114.196 114.196s114.196-51.128 114.196-114.196zM979.62 469.514l-185.324 193.014c-24.402 25.416-73.226 46.244-108.503 46.244h-133.837c0 37.837-30.669 68.506-68.506 68.506-37.857 0-68.516-30.669-68.516-68.506h-350.833c-35.256 0-64.102-28.846-64.102-64.113v-347.638c0-28.856 19.333-53.402 45.691-61.338 1.495 91.136 75.981 164.874 167.475 164.874 92.416 0 167.619-75.192 167.619-167.619h227.799c0 92.426 75.182 167.619 167.608 167.619 92.416 0 167.619-75.192 167.619-167.619h16.077c35.246 0 64.102 28.846 64.102 64.102v62.136c0.010 35.246-19.948 84.89-44.37 110.336z" />
<glyph unicode="&#xe952;" glyph-name="dd5" d="M1022.935 481.147l-391.721-54.589 337.889-205.578c35.973 71.342 54.897 150.518 54.897 230.277 0 9.236-0.348 18.995-1.065 29.891zM542.628 959.601l14.387-464.404 459.94 64.154c-49.613 224.44-244.623 389.018-474.327 400.251zM478.444 423.741l-6.154 164.383-11.5 369.736c-259.891-25.917-460.79-246.088-460.79-509.399 0-282.337 229.704-512.061 512.072-512.061 165.376 0 319.427 79.544 415.887 213.842l-449.516 273.5z" />
<glyph unicode="&#xe953;" glyph-name="e" d="M566.641 403.917c-118.579 0-230.523 25.477-315.116 71.721-27.3 14.961-51.415 31.959-71.741 50.678-29.624 27.32-50.637 57.815-62.536 90.706-7.516 20.951-11.336 42.271-11.336 63.539 0 157.676 198.083 276.552 460.739 276.552 262.666 0 460.739-118.866 460.739-276.552 0-21.381-3.82-42.762-11.325-63.539-11.858-32.85-32.911-63.386-62.433-90.665-20.48-18.78-44.585-35.82-71.834-50.698-84.634-46.254-196.516-71.741-315.156-71.741zM566.641 840.038c-220.344 0-355.604-92.897-355.604-159.478 0-6.4 1.239-12.882 3.738-19.866 5.202-14.356 16.261-29.655 32-44.165 13.978-12.861 31.201-24.945 51.118-35.84 69.396-37.96 167.383-59.72 268.739-59.72 101.407 0 199.373 21.76 268.8 59.761 19.845 10.824 37.079 22.917 51.18 35.881 15.606 14.397 26.665 29.696 31.918 44.145 2.468 6.922 3.686 13.384 3.686 19.804 0.031 66.58-135.229 159.478-355.574 159.478zM965.601 409.518c-19.323-17.746-42.68-34.222-69.376-48.876-83.722-45.742-200.325-74.179-329.585-74.179-129.157 0-245.842 28.436-329.564 74.179-26.665 14.664-50.022 31.13-69.376 48.876-21.34 19.722-37.396 41.288-47.923 64.020-9.042-19.22-13.875-39.342-13.875-60.058 0-16.179 3.021-31.816 8.479-46.991 9.861-27.331 28.18-52.972 53.32-76.165 19.364-17.746 42.721-34.222 69.376-48.865 83.722-45.711 200.397-74.179 329.564-74.179 129.239 0 245.862 28.467 329.585 74.179 26.696 14.664 50.074 31.119 69.376 48.865 25.18 23.214 43.438 48.855 53.279 76.165 5.54 15.165 8.499 30.812 8.499 46.991 0 20.716-4.864 40.806-13.875 60.037-10.486-22.712-26.522-44.278-47.903-64zM965.601 175.421c-19.323-17.736-42.68-34.222-69.376-48.876-83.722-45.763-200.325-74.199-329.585-74.199-129.157 0-245.842 28.436-329.564 74.199-26.665 14.674-50.022 31.14-69.376 48.876-21.34 19.702-37.396 41.236-47.923 63.98-9.042-19.2-13.875-39.322-13.875-60.017 0-16.2 3.021-31.816 8.479-47.002 9.861-27.341 28.18-52.982 53.32-76.165 19.364-17.746 42.721-34.253 69.376-48.865 83.722-45.752 200.397-74.199 329.564-74.199 129.239 0 245.862 28.447 329.585 74.199 26.696 14.643 50.074 31.119 69.376 48.865 25.18 23.204 43.438 48.845 53.279 76.165 5.54 15.165 8.499 30.802 8.499 47.002 0 20.695-4.864 40.786-13.875 60.017-10.486-22.743-26.522-44.278-47.903-63.98z" />
<glyph unicode="&#xe954;" glyph-name="ea" d="M803.738-64h-583.475c-121.457 0-220.262 98.796-220.262 220.262v583.475c0 121.467 98.806 220.262 220.262 220.262h583.475c121.467 0 220.262-98.796 220.262-220.262v-583.475c0-121.467-98.796-220.262-220.262-220.262zM942.080 743.905c0 79.759-64.635 144.415-144.425 144.415h-581.56c-79.77 0-144.415-64.655-144.415-144.415v-581.581c0-79.749 64.645-144.404 144.415-144.404h581.581c79.77 0 144.404 64.655 144.404 144.425v581.56zM542.351 538.563c-7.352 22.446 13.394 59.32-0.287 78.019-13.865 18.862-55.685 10.619-74.701 24.361-18.831 13.619-23.777 55.685-46.408 62.996-21.842 7.035-50.688-23.921-74.885-23.921-24.187 0-53.053 30.945-74.865 23.921-22.63-7.322-27.535-49.408-46.418-63.017-18.995-13.722-60.846-5.458-74.67-24.34-13.711-18.698 7.025-55.572-0.307-78.019-7.096-21.658-45.937-39.301-45.937-63.304 0-24.023 38.84-41.636 45.937-63.324 7.332-22.446-13.404-59.32 0.307-78.019 13.824-18.862 55.644-10.578 74.67-24.34 18.883-13.599 23.788-55.706 46.418-63.007 21.811-7.035 50.668 23.921 74.865 23.921s53.053-30.945 74.885-23.921c22.63 7.301 27.556 49.408 46.408 63.007 18.985 13.732 60.846 5.458 74.701 24.34 13.681 18.678-7.045 55.572 0.287 78.019 7.066 21.678 45.926 39.291 45.926 63.324 0 24.003-38.861 41.646-45.926 63.304zM609.71 703.939h263.393v-94.372h-263.393v94.372zM609.71 339.896h263.393v-94.382h-263.393v94.382zM609.71 521.923h263.393v-94.351h-263.393v94.351z" />
<glyph unicode="&#xe955;" glyph-name="ea1" d="M368.906 434.156c-43.592 0-78.971-35.103-78.971-78.397 0-43.315 35.379-78.418 78.971-78.418 43.612 0 78.971 35.103 78.971 78.418 0 43.305-35.359 78.397-78.971 78.397zM368.558 300.37c-30.618 0-55.398 24.607-55.398 54.989s24.781 55.009 55.398 55.009c30.577 0 55.378-24.627 55.378-55.009s-24.791-54.989-55.378-54.989zM676.915 435.722c-43.602 0-78.961-35.103-78.961-78.397s35.359-78.397 78.961-78.397c43.612 0 78.961 35.113 78.961 78.397 0 43.295-35.359 78.397-78.961 78.397zM676.557 301.916c-30.597 0-55.388 24.637-55.388 54.999 0 30.382 24.791 54.999 55.388 54.999 30.577 0 55.378-24.617 55.378-54.999 0.010-30.351-24.771-54.999-55.378-54.999zM779.817 506.706c-51.845 7.035-80.148 35.123-122.563 70.216-42.445 35.113-115.497 58.511-115.497 58.511-120.197 28.088-193.28-18.719-193.28-18.719-190.925-70.216-141.425-269.158-141.425-269.158h63.928c-0.174 1.106-0.297 2.243-0.297 3.379v24.699h-37.714c0 0-35.348 156.805 115.497 215.306 0 0 84.859 56.187 216.863 4.69 0 0 44.769-18.719 77.773-42.117 33.004-23.409 84.849-67.871 110.787-67.871 25.907 0 77.783-18.729 63.631-110.008h-28.344c0-0.338 0.061-0.696 0.061-1.065v-27.044h47.145c30.659 86.63-4.7 152.177-56.566 159.181zM567.736 375.665h-101.407v-24.699c0-1.147-0.123-2.284-0.266-3.4h101.612v27.044c0.010 0.328 0.020 0.686 0.061 1.055zM803.738-64h-583.475c-121.457 0-220.262 98.796-220.262 220.262v583.475c0 121.467 98.806 220.262 220.262 220.262h583.475c121.467 0 220.262-98.796 220.262-220.262v-583.475c0-121.467-98.796-220.262-220.262-220.262zM942.080 743.905c0 79.759-64.635 144.415-144.425 144.415h-581.56c-79.77 0-144.415-64.655-144.415-144.415v-581.581c0-79.749 64.645-144.404 144.415-144.404h581.581c79.77 0 144.404 64.655 144.404 144.425v581.56z" />
<glyph unicode="&#xe956;" glyph-name="ea2" d="M406.487 363.264h16.097c0.983 4.68 1.495 9.544 1.495 14.52 0 4.987-0.502 9.861-1.495 14.52h-16.097c-1.198 4.68-2.908 9.155-5.161 13.261l11.121 11.121c-5.366 8.202-12.37 15.186-20.531 20.572l-10.476-10.455c-4.301 2.703-8.95 4.966-13.916 6.523v14.060c-4.69 0.973-9.544 1.495-14.541 1.495-4.987 0-9.82-0.522-14.531-1.495v-12.667c-5.663-1.178-11.028-3.174-15.964-5.847l-8.397 8.387c-8.182-5.366-15.196-12.37-20.562-20.572l7.721-7.741c-3.226-5.038-5.673-10.66-7.209-16.64h-10.66c-0.963-4.659-1.495-9.533-1.495-14.52 0-4.977 0.532-9.841 1.495-14.52h10.66c1.536-5.98 3.983-11.581 7.209-16.64l-7.721-7.752c5.356-8.182 12.37-15.165 20.562-20.541l8.397 8.366c4.936-2.683 10.301-4.659 15.964-5.837v-12.657c4.7-0.973 9.544-1.495 14.531-1.495 4.997 0 9.851 0.543 14.541 1.495v14.060c4.966 1.526 9.615 3.789 13.916 6.523l10.476-10.455c8.161 5.345 15.165 12.36 20.531 20.541l-11.121 11.131c2.263 4.106 3.973 8.602 5.161 13.261zM352.983 352.358c-14.039 0-25.416 11.356-25.416 25.416 0 14.039 11.377 25.405 25.416 25.405 14.049 0 25.436-11.366 25.436-25.405 0.010-14.039-11.387-25.416-25.436-25.416zM731.505 363.264h16.108c0.993 4.68 1.495 9.544 1.495 14.52 0 4.987-0.502 9.861-1.495 14.52h-16.108c-1.178 4.68-2.877 9.155-5.14 13.261l11.121 11.121c-5.366 8.202-12.38 15.186-20.541 20.572l-10.486-10.455c-4.301 2.703-8.94 4.966-13.906 6.523v14.060c-4.69 0.973-9.554 1.495-14.531 1.495s-9.83-0.522-14.541-1.495v-12.667c-5.663-1.178-11.018-3.174-15.985-5.847l-8.376 8.387c-8.202-5.366-15.196-12.37-20.582-20.572l7.741-7.741c-3.215-5.038-5.683-10.66-7.199-16.64h-10.65c-0.973-4.659-1.495-9.533-1.495-14.52 0-4.977 0.532-9.841 1.495-14.52h10.65c1.516-5.98 3.983-11.581 7.199-16.64l-7.741-7.752c5.376-8.182 12.38-15.165 20.582-20.541l8.376 8.366c4.946-2.683 10.322-4.659 15.985-5.837v-12.657c4.71-0.973 9.564-1.495 14.541-1.495s9.841 0.543 14.531 1.495v14.060c4.966 1.526 9.605 3.789 13.906 6.523l10.476-10.455c8.161 5.345 15.155 12.36 20.541 20.541l-11.121 11.131c2.243 4.106 3.942 8.602 5.151 13.261zM678.011 352.358c-14.039 0-25.405 11.356-25.405 25.416 0 14.039 11.366 25.405 25.405 25.405s25.426-11.366 25.426-25.405-11.387-25.416-25.426-25.416zM782.93 527.206c-53.688 7.27-82.985 36.362-126.915 72.714-43.94 36.362-119.603 60.59-119.603 60.59-124.467 29.082-200.131-19.384-200.131-19.384-197.683-72.714-146.432-278.682-146.432-278.682h66.191c-0.174 1.137-0.297 2.314-0.297 3.502v25.559h-39.055c0 0-36.608 162.376 119.593 222.956 0 0 87.859 58.163 224.553 4.854 0 0 46.346-19.384 80.517-43.612 34.181-24.238 87.859-70.277 114.719-70.277 26.839 0 80.527-19.405 65.905-113.91h-29.358c0.031-0.358 0.082-0.717 0.082-1.085v-27.965h48.794c31.744 89.62-4.874 157.481-58.563 164.741zM563.343 391.496h-105.011v-25.58c0-1.178-0.133-2.345-0.307-3.502h105.247v27.976c0 0.389 0.051 0.748 0.072 1.106zM512-57.17c-278.548 0-505.17 226.621-505.17 505.17s226.621 505.17 505.17 505.17 505.17-226.621 505.17-505.17-226.621-505.17-505.17-505.17zM512 878.326c-237.281 0-430.326-193.044-430.326-430.326s193.044-430.316 430.326-430.316 430.316 193.044 430.316 430.316c0 237.281-193.034 430.326-430.316 430.326z" />
<glyph unicode="&#xe957;" glyph-name="ea3" d="M286.085 593.828c-61.358 0-111.135-49.408-111.135-110.346 0-60.959 49.766-110.356 111.135-110.356 61.379 0 111.145 49.398 111.145 110.356-0.010 60.938-49.766 110.346-111.145 110.346zM285.583 405.545c-43.080 0-77.957 34.621-77.957 77.394 0 42.752 34.877 77.414 77.957 77.414 43.049 0 77.937-34.662 77.937-77.414 0-42.783-34.888-77.394-77.937-77.394zM719.575 596.019c-61.379 0-111.145-49.398-111.145-110.326 0-60.959 49.746-110.356 111.145-110.356 61.358 0 111.104 49.398 111.104 110.356 0 60.918-49.736 110.326-111.104 110.326zM719.063 407.716c-43.059 0-77.957 34.652-77.957 77.404 0 42.742 34.898 77.404 77.957 77.404 43.039 0 77.957-34.662 77.957-77.404s-34.918-77.404-77.957-77.404zM864.389 695.921c-72.98 9.892-112.814 49.428-172.513 98.806-59.699 49.418-162.54 82.36-162.54 82.36-169.155 39.526-272.005-26.327-272.005-26.327-268.687-98.847-199.035-378.819-199.035-378.819h89.979c-0.236 1.567-0.42 3.144-0.42 4.772v34.755h-53.074c0 0-49.746 220.703 162.55 303.032 0 0 119.429 79.073 305.213 6.605 0 0 62.996-26.358 109.445-59.29s119.409-95.508 155.924-95.508c36.485 0 109.466-26.358 89.559-154.829h-39.905c0.020-0.492 0.082-0.983 0.082-1.485v-38.042h66.345c43.121 121.876-6.625 214.118-79.606 223.969zM565.924 511.468h-142.735v-34.755c0-1.628-0.174-3.205-0.389-4.772h143.032v38.042c0 0.502 0.051 0.993 0.092 1.485zM356.782 7.68h-356.782l58.184 286.72h233.677zM690.391 294.4h-356.782l58.184-286.72h233.667zM1024 7.68h-356.782l58.184 286.72h233.677z" />
<glyph unicode="&#xe958;" glyph-name="ea4" d="M394.291 255.386c0-42.229-34.233-76.462-76.462-76.462s-76.462 34.233-76.462 76.462c0 42.229 34.233 76.462 76.462 76.462s76.462-34.233 76.462-76.462zM771.287 255.386c0-42.229-34.233-76.462-76.462-76.462s-76.462 34.233-76.462 76.462c0 42.229 34.233 76.462 76.462 76.462s76.462-34.233 76.462-76.462zM831.017 413.798l-124.078 129.239c-16.343 17.019-49.039 30.956-72.663 30.956h-89.62c0 25.334-20.521 45.865-45.865 45.865-25.354 0-45.875-20.541-45.875-45.865h-234.906c-23.613 0-42.906-19.313-42.906-42.926v-232.765c0-19.323 12.943-35.738 30.587-41.073 0.993 61.030 50.872 110.367 112.138 110.367 61.88 0 112.23-50.319 112.23-112.22h152.535c0 61.901 50.319 112.22 112.22 112.22 61.88 0 112.241-50.319 112.241-112.22h10.772c23.603 0 42.906 19.333 42.906 42.906v41.605c0.010 23.624-13.373 56.873-29.716 73.912zM979.763 94.116c-24.351 0-44.257 12.8-44.257 28.457 0 15.626-38.4 28.426-85.34 28.426h-676.342c-46.94 0-85.33-12.8-85.33-28.426 0-15.657-19.907-28.457-44.247-28.457-24.33 0-44.237-28.426-44.237-63.222 0-34.755 38.4-63.201 85.32-63.201h853.33c46.94 0 85.35 28.447 85.35 63.201-0.010 34.796-19.927 63.222-44.247 63.222zM73.021 688.21c-40.172-24.289-34.621-44.165 12.298-44.165h878.623c46.93 0 52.081 19.18 11.397 42.609l-389.396 224.492c-40.684 23.45-106.803 22.764-146.964-1.536l-365.957-221.399z" />
<glyph unicode="&#xe959;" glyph-name="ea5" d="M963.215 355.727l-116.019 244.204-335.196 162.365-335.196-162.365-116.029-244.204-60.774 28.877 126.177 265.554 385.823 186.89 385.812-186.89 126.188-265.554zM816.179 551.834l-304.179 129.546-304.179-129.546-92.948-188.703v-304.179h230.953v219.679h332.36v-219.679h230.963v304.179l-92.969 188.703zM512 365.916c-51.333 0-92.948 41.615-92.948 92.959s41.615 92.959 92.948 92.959c51.343 0 92.948-41.626 92.948-92.959s-41.605-92.959-92.948-92.959z" />
<glyph unicode="&#xe95a;" glyph-name="eb" d="M383.437 881.654l103.404-51.671c12.063-6.093 32.061-6.093 44.257 0l103.322 51.671c12.165 6.083 12.165 16.056 0 22.098l-103.322 51.722c-12.196 6.042-32.205 6.042-44.257 0l-103.404-51.722c-12.278-6.042-12.278-16.118 0-22.098v0zM547.564 799.539l103.322-51.62c12.186-6.042 32.143-6.042 44.206 0l103.455 51.62c12.104 6.185 12.104 16.056 0 22.2l-103.455 51.732c-12.083 5.98-32.020 5.98-44.206 0l-103.322-51.732c-12.247-6.144-12.247-16.005 0-22.2v0zM325.325 398.008l-99.686 50.227c-11.868 5.98-20.48-1.444-20.48-16.374v-126.362c0-14.991 9.779-32.123 21.647-37.898l98.519-50.34c11.868-5.939 19.261 1.485 19.261 16.261v126.628c-0.010 14.879-7.393 31.918-19.261 37.857v0zM469.443 657.715l-102.932 51.692c-12.175 6.021-31.816 6.021-44.001 0l-105.073-51.692c-8.622-4.342-12.288-13.404-12.288-22.405v-126.618c0-14.817 11.459-31.857 23.286-37.796l97.649-50.176c11.981-6.052 18.493 1.382 18.493 16.169v123.177c0 8.796 6.277 17.705 14.787 21.985 35.686 17.807 73.329 35.615 109.036 53.361 12.145 6.154 13.21 16.241 1.044 22.303v0zM489.431 628.419c-34.017-17.603-66.652-35.205-100.823-52.593-8.233-4.25-12.708-14.991-12.708-24.351v-128.42c0-15.145 8.059-32.543 19.855-38.482 21.903-11.244 64.696-31.14 91.3-43.52 14.715-6.646 31.58-6.646 46.295 0.164 30.106 13.865 80.886 37.376 98.12 45.978 11.95 6.001 20.040 22.979 20.040 37.919v126.566c0 9.155-4.454 19.784-12.913 24.033-17.623 8.745-34.816 17.5-52.019 26.307-0.246 0-0.461-0.123-0.563-0.215l-52.204 26.624c-11.991 6.083-32.266 6.083-44.38-0.010v0zM325.325 197.151l-99.686 50.289c-11.868 5.837-20.48-1.444-20.48-16.425v-126.505c0-14.94 9.779-31.918 21.647-37.857l98.519-50.166c11.868-5.98 19.261 1.382 19.261 16.2v126.577c-0.010 15.032-7.393 32.020-19.261 37.888v0zM304.855 739.738l-102.605 51.661c-12.155 6.144-31.785 6.144-44.042 0l-106.527-51.661c-8.643-4.362-13.957-13.363-13.957-22.415v-126.556c0-14.93 13.189-31.918 25.098-37.786l96.881-50.34c11.776-5.939 17.521 1.372 17.521 16.302v123.126c0 8.899 7.834 17.654 16.425 22.057 35.656 17.736 74.158 35.615 109.783 53.514 12.186 5.98 13.66 16.046 1.423 22.098v0zM160.604 482.57l-101.1 50.227c-11.848 5.939-21.78-1.372-21.78-16.374v-126.351c0-14.94 12.431-32.092 24.33-37.908l97.208-50.381c11.827-5.898 17.961 1.382 17.961 16.323v126.556c0 14.93-4.823 32.020-16.62 37.908v0zM160.604 281.743l-101.1 50.217c-11.848 5.888-21.78-1.444-21.78-16.384v-126.474c0-14.93 12.431-31.908 24.33-37.847l97.208-50.227c11.827-5.98 17.961 1.331 17.961 16.21v126.587c0 15.032-4.823 32.010-16.62 37.919v0zM219.412 799.539l103.27-51.62c12.257-5.98 32.164-5.98 44.39 0l103.342 51.62c12.175 6.185 12.175 16.21 0 22.241l-103.342 51.692c-12.227 6.072-32.133 6.072-44.39 0l-103.27-51.692c-12.216-6.031-12.216-16.046 0-22.241v0zM632.965 367.145c0 0-62.28-30.935-98.499-48.394-15.524-7.434-33.659-7.26-48.927 0.512l-94.372 47.882c-11.981 5.878-21.852-1.423-21.852-16.312-0.082-42.363-0.082-84.306-0.082-126.566 0-14.94 9.697-31.857 21.565-37.898l98.324-48.026c15.483-7.731 33.7-7.567 49.132 0.215l94.935 47.831c11.899 6.042 21.565 22.968 21.565 37.908 0 42.26 0 84.357-0.082 126.556 0.010 14.879-9.81 22.19-21.709 16.292v0zM798.372 448.236l-99.789-50.227c-11.756-5.939-19.139-22.979-19.139-37.857v-126.607c0-14.776 7.383-22.2 19.261-16.271l98.458 50.34c11.919 5.775 21.74 22.907 21.74 37.755v126.505c0 14.93-8.622 22.344-20.531 16.364v0zM806.564 657.715l-115.599 54.026c-11.981 6.195-27.126 7.926-39.219 1.894l-102.441-53.555c-12.083-6.144-12.339-16.773-0.113-22.968 27.034-13.814 104.192-49.521 115.487-55.050 8.52-4.291 14.756-13.189 14.756-21.985v-123.177c0-14.797 6.523-22.221 18.401-16.169l97.597 50.176c11.899 5.939 23.46 22.979 23.46 37.796v126.618c0.010 9.001-3.738 18.063-12.329 22.395v0zM798.372 247.439l-99.789-50.289c-11.756-5.868-19.139-22.845-19.139-37.888v-126.577c0-14.817 7.383-22.18 19.261-16.2l98.458 50.166c11.919 5.939 21.74 22.917 21.74 37.857v126.525c0 14.961-8.622 22.241-20.531 16.404v0zM965.816 742.39l-105.4 52.5c-12.001 6.144-33.403 6.144-45.455 0l-98.15-50.053c-12.032-6.185-13.107-17.654-1.147-23.88 33.382-17.080 110.223-54.538 114.76-56.832 8.499-4.25 16.364-13.107 16.364-22.057v-123.034c0-14.879 5.816-22.354 17.551-16.415l96.901 50.34c11.868 5.868 25.047 22.856 25.047 37.949v126.413c-0.010 3.236-2.816 17.244-20.47 25.068v0zM964.485 532.797l-101.007-50.227c-11.858-5.888-16.691-22.979-16.691-37.908v-126.556c0-14.94 6.103-22.2 17.94-16.323l97.26 50.401c11.878 5.806 24.3 22.958 24.3 37.898v126.351c-0.010 14.991-9.902 22.303-21.801 16.364v0zM964.485 331.96l-101.007-50.217c-11.858-5.898-16.691-22.876-16.691-37.919v-126.474c0-14.991 6.103-22.303 17.94-16.323l97.26 50.227c11.878 5.939 24.3 23.020 24.3 37.847v126.648c-0.010 14.766-9.902 22.098-21.801 16.21v0zM632.965 166.318c0 0-59.259-30.188-94.044-47.964-15.452-7.834-33.792-7.956-49.357-0.338l-98.509 48.302c-11.868 5.98-21.74-1.444-21.74-16.404-0.082-42.076-0.082-84.152-0.082-126.454 0-14.991 9.697-31.969 21.565-37.97l102.779-44.902c14.602-6.4 31.14-6.103 45.619 0.655l93.983 44.227c11.899 6.001 21.576 22.979 21.576 37.97 0 42.301 0 84.224-0.102 126.464 0.031 14.981-9.789 22.395-21.688 16.415v0z" />
<glyph unicode="&#xe95b;" glyph-name="eb1" d="M402.268 325.233c0-37.688-30.552-68.239-68.239-68.239s-68.239 30.552-68.239 68.239c0 37.688 30.552 68.239 68.239 68.239s68.239-30.552 68.239-68.239zM738.642 325.233c0-37.688-30.552-68.239-68.239-68.239s-68.239 30.552-68.239 68.239c0 37.688 30.552 68.239 68.239 68.239s68.239-30.552 68.239-68.239zM797.44 466.586l-113.469 111.35c-14.582 15.176-46.49 23.665-67.574 23.665h-79.964c0 30.72-18.319 40.929-40.929 40.929-22.63 0-40.929-10.209-40.929-40.929h-209.613c-21.053 0-40.161-9.298-40.161-30.372v-207.698c0-17.254 12.493-31.898 28.232-36.639 0.891 54.446 45.875 93.307 100.516 93.307 55.224 0 100.628-54.118 100.628-105.318h136.090c0 51.2 44.943 100.116 100.127 100.116 55.235 0 100.147-48.916 100.147-100.116h9.615c21.084 0 49.285 27.597 49.285 48.65v37.13c0 21.064-17.418 50.719-32 65.925zM979.579 489.236l37.069 53.187c-4.936 26.962-11.96 53.627-21.176 79.698l-58.655 27.556c-11.5 24.719-25.426 48.589-41.441 71.465l5.437 64.799c-8.837 10.363-18.084 20.572-27.843 30.382-9.841 9.83-20.081 19.005-30.464 27.873l-64.727-5.417c-22.886 15.995-46.766 29.911-71.485 41.441l-27.556 58.624c-26.081 9.226-52.726 16.241-79.698 21.156l-53.156-37.018c-8.878 0.768-58.86 0.768-67.758 0l-53.166 37.018c-26.952-4.915-53.627-11.93-79.739-21.156l-27.525-58.624c-24.719-11.53-48.609-25.446-71.485-41.441l-64.737 5.417c-10.414-8.858-20.613-18.043-30.433-27.873-9.8-9.81-19.016-20.019-27.853-30.382l5.458-64.799c-16.067-22.866-29.942-46.735-41.462-71.465l-58.655-27.556c-9.216-26.071-16.23-52.736-21.176-79.698l37.048-53.187c-2.365-27.433-2.365-55.071 0-82.555l-37.007-53.125c4.905-26.921 11.919-53.565 21.135-79.636l58.655-27.597c11.52-24.719 25.385-48.62 41.462-71.465l-5.458-64.819c8.827-10.342 18.053-20.562 27.853-30.351 9.82-9.851 20.019-19.016 30.372-27.873l64.799 5.417c22.876-16.005 46.766-29.921 71.485-41.421l27.525-58.675c26.153-9.206 52.787-16.2 79.811-21.125l53.125 37.018c8.868-0.768 58.849-0.768 67.727 0l53.084-37.028c27.044 4.936 53.647 11.919 79.77 21.135l27.556 58.665c24.719 11.5 48.599 25.405 71.485 41.421l64.778-5.427c10.332 8.847 20.572 18.022 30.413 27.884 9.759 9.779 18.995 19.999 27.843 30.351l-5.437 64.819c16.005 22.845 29.942 46.725 41.441 71.465l58.655 27.607c9.206 26.071 16.241 52.716 21.146 79.657l-37.038 53.115c2.396 27.464 2.396 55.122 0 82.545zM512.010 48.998c-220.365 0-399.012 178.637-399.012 399.002s178.647 399.002 399.012 399.002c220.375 0 398.981-178.637 398.981-399.002s-178.616-399.002-398.981-399.002z" />
<glyph unicode="&#xe95c;" glyph-name="eb2" d="M691.978 517.284c31.345-51.057 49.818-110.868 49.818-175.104 0-185.057-150.497-335.616-335.606-335.616-185.057 0-335.647 150.559-335.647 335.616 0 185.119 150.589 335.616 335.647 335.616 64.184 0 124.027-18.432 175.094-49.828l51.282 51.272c-64.727 43.622-142.623 69.12-226.365 69.12-223.949 0-406.2-182.221-406.2-406.18 0-224.010 182.252-406.18 406.19-406.18 223.959 0 406.18 182.17 406.18 406.18 0 83.804-25.508 161.587-69.089 226.365l-51.302-51.261zM520.151 566.886c-34.263 17.408-72.919 27.494-113.961 27.494-139.039 0-252.17-113.162-252.17-252.201s113.132-252.14 252.17-252.14c139.028 0 252.18 113.101 252.18 252.14 0 41.042-10.066 79.657-27.525 114.022l-54.006-54.057c6.646-18.862 11.018-38.902 11.018-59.945 0-100.127-81.49-181.627-181.658-181.627-100.137 0-181.637 81.5-181.637 181.627s81.5 181.627 181.637 181.627c21.115 0 41.093-4.28 59.924-10.926l54.026 53.985zM1023.324 806.39c-1.618 4.823-5.837 8.346-10.885 9.165l-115.425 16.128-17.5 116.736c-0.799 5.1-4.219 9.216-9.114 10.885-1.403 0.43-2.836 0.696-4.239 0.696-3.533 0-7.025-1.454-9.544-3.973l-124.457-124.406c-3-3-4.403-7.342-3.748-11.52l12.073-82.719-264.755-264.847c-11.141-11.151-14.223-26.675-10.547-40.991l-68.454-68.372c-8.407-8.407-8.407-22.006 0-30.433 4.26-4.178 9.718-6.318 15.237-6.318 5.468 0 10.988 2.14 15.186 6.318l68.403 68.424c3.799-0.973 7.66-1.495 11.51-1.495 10.691 0 21.299 3.871 29.44 12.063l264.806 264.786 82.749-12.165c0.625-0.113 1.321-0.164 1.956-0.164 3.594 0 6.994 1.454 9.544 4.024l124.375 124.406c3.697 3.645 4.987 8.888 3.389 13.773v0z" />
<glyph unicode="&#xe95d;" glyph-name="ec" d="M979.743 94.095c-24.32 0-44.237 12.8-44.237 28.436 0 15.657-38.4 28.447-85.34 28.447h-676.352c-46.94 0-85.32-12.79-85.32-28.447 0-15.636-19.917-28.436-44.257-28.436-24.33 0-44.237-28.426-44.237-63.222 0-34.765 38.4-63.181 85.35-63.181h853.32c46.92 0 85.34 28.416 85.34 63.181-0.010 34.796-19.927 63.222-44.268 63.222zM72.991 688.2c-40.161-24.289-34.601-44.155 12.349-44.155h878.592c46.94 0 52.091 19.169 11.397 42.629l-389.386 224.471c-40.684 23.46-106.783 22.743-146.944-1.546l-366.008-221.399zM524.483 610.847l66.642-135.025 149.012-21.647-107.837-105.114 25.457-148.419-133.274 70.072-133.284-70.072 25.446 148.419-107.827 105.114 149.012 21.647zM499.497 650.506h49.961v-85.176h-49.961v85.176z" />
<glyph unicode="&#xe95e;" glyph-name="ec1" d="M979.743 94.095c-24.32 0-44.237 12.8-44.237 28.436 0 15.657-38.4 28.447-85.34 28.447h-676.352c-46.94 0-85.32-12.79-85.32-28.447 0-15.636-19.917-28.436-44.257-28.436-24.33 0-44.237-28.426-44.237-63.222 0-34.765 38.4-63.181 85.35-63.181h853.32c46.92 0 85.34 28.416 85.34 63.181-0.010 34.796-19.927 63.222-44.268 63.222zM60.518 688.2c-40.161-24.289-34.601-44.155 12.349-44.155h878.592c46.94 0 52.081 19.169 11.397 42.629l-389.396 224.471c-40.684 23.46-106.783 22.743-146.944-1.546l-365.998-221.399z" />
<glyph unicode="&#xe95f;" glyph-name="ec2" d="M405.78 682.629c-0.225-41.349-33.884-74.629-75.213-74.312-41.339 0.225-74.588 33.946-74.301 75.264 0.215 41.103 33.884 74.394 75.254 74.086 41.39-0.225 74.557-33.864 74.26-75.039v0zM756.695 721.981l-255.068 1.72c-23.439 0.133-42.65-18.565-42.783-42.004-0.205-23.45 18.78-42.23 42.23-42.363l255.119-1.679c23.46-0.102 42.578 18.36 42.721 41.759 0.174 23.511-18.698 42.476-42.22 42.568v0zM404.439 470.323c-0.266-41.308-33.966-74.424-75.315-74.26-41.298 0.338-74.547 33.925-74.291 75.254 0.287 41.339 33.966 74.629 75.346 74.373 41.308-0.246 74.516-33.946 74.26-75.366v0zM755.364 511.109l-255.119 1.71c-23.46 0.102-42.598-19.139-42.732-42.793-0.195-23.409 18.678-42.977 42.199-43.223l255.119-1.638c23.48-0.092 42.557 19.18 42.772 42.527 0.133 23.818-18.76 43.284-42.24 43.418v0zM402.924 243.732c-0.256-41.411-33.905-74.629-75.254-74.363-41.339 0.358-74.557 33.987-74.373 75.366 0.369 41.318 33.976 74.516 75.356 74.26 41.349-0.287 74.598-33.884 74.271-75.264v0zM753.91 284.744l-255.181 1.679c-23.378 0.143-42.516-19.415-42.721-42.834-0.164-23.542 18.749-43.213 42.23-43.305l255.119-1.7c23.419-0.113 42.639 19.282 42.721 42.783 0.154 23.409-18.719 43.172-42.168 43.377v0zM875.54 956.447l-127.181 0.809-3.031-0.287-604.826 3.031c-1.024-0.164-2.048-0.328-3.062-0.532-39.332-7.608-69.171-42.138-69.448-83.866l-5.56-848.2c-0.287-47.616 37.919-86.374 85.391-86.671l721.9-4.731c47.483-0.369 86.405 37.919 86.723 85.555l5.14 848.169c0.236 47.514-38.564 86.436-86.047 86.723zM870.615 73.216c-0.246-29.174-24.003-52.695-53.238-52.48l-615.956 3.983c-29.235 0.205-52.91 24.064-52.716 53.176l4.833 744.264c0.256 29.215 24.207 52.746 53.443 52.562l73.452-0.502c-0.184-23.245 18.514-42.25 41.8-42.394l384.655-2.499c23.347-0.133 42.291 18.586 42.465 41.841l73.615-0.492c29.225-0.174 52.695-23.982 52.49-53.187l-4.844-744.274z" />
<glyph unicode="&#xe960;" glyph-name="ec3" d="M331.52 757.668c-41.37 0.297-75.028-32.993-75.254-74.086-0.287-41.308 32.963-75.028 74.301-75.264 41.329-0.317 74.977 32.963 75.213 74.312 0.297 41.175-32.87 74.813-74.26 75.039zM756.695 721.981l-255.058 1.72c-23.439 0.133-42.65-18.565-42.783-42.004-0.205-23.45 18.78-42.23 42.23-42.363l255.119-1.679c23.45-0.102 42.578 18.36 42.721 41.759 0.164 23.511-18.708 42.476-42.23 42.568zM330.179 545.679c-41.38 0.256-75.059-33.034-75.346-74.373-0.256-41.329 32.993-74.906 74.291-75.254 41.349-0.164 75.049 32.963 75.315 74.26 0.256 41.431-32.952 75.131-74.26 75.366zM755.364 511.109l-255.119 1.71c-23.46 0.102-42.598-19.139-42.732-42.793-0.195-23.409 18.678-42.977 42.199-43.223l255.119-1.638c23.48-0.092 42.557 19.169 42.762 42.527 0.154 23.818-18.749 43.284-42.23 43.418zM328.663 319.007c-41.38 0.256-74.988-32.952-75.356-74.26-0.195-41.38 33.024-75.018 74.373-75.377 41.349-0.266 74.988 32.952 75.254 74.363 0.317 41.38-32.932 74.977-74.271 75.274zM753.91 284.744l-255.181 1.669c-23.378 0.143-42.516-19.415-42.721-42.824-0.164-23.542 18.749-43.213 42.23-43.305l255.119-1.7c23.419-0.113 42.65 19.272 42.721 42.783 0.154 23.409-18.719 43.172-42.168 43.377zM875.54 956.447l-127.181 0.809-3.031-0.287-604.826 3.031c-1.024-0.164-2.048-0.328-3.062-0.532-39.332-7.608-69.171-42.138-69.448-83.866l-5.56-848.2c-0.287-47.626 37.919-86.374 85.391-86.671l721.889-4.731c47.493-0.369 86.405 37.919 86.733 85.565l5.13 848.159c0.246 47.514-38.554 86.436-86.036 86.723zM870.625 73.226c-0.256-29.174-24.003-52.705-53.248-52.49l-615.956 3.983c-29.235 0.205-52.91 24.054-52.716 53.176l4.833 744.264c0.256 29.215 24.207 52.746 53.443 52.562l73.452-0.502c-0.184-23.245 18.514-42.25 41.8-42.394l384.655-2.499c23.357-0.133 42.291 18.586 42.465 41.841l73.626-0.492c29.215-0.174 52.695-23.982 52.49-53.187l-4.844-744.264z" />
</font>
</defs>
</svg>
